<svg width="287" height="344" viewBox="0 0 287 344" fill="none" xmlns="http://www.w3.org/2000/svg">
<g clip-path="url(#clip0)">
<path d="M137.123 58.3696L262.629 273.551H11.6167L137.123 58.3696Z" fill="url(#paint0_radial)"/>
<path d="M137.123 58.3696L262.629 273.551H11.6167L137.123 58.3696Z" fill="url(#paint1_radial)"/>
<path d="M137.123 58.3696L262.629 273.551H11.6167L137.123 58.3696Z" fill="url(#paint2_radial)"/>
<path d="M137.123 58.3696L262.629 273.551H11.6167L137.123 58.3696Z" stroke="black" stroke-miterlimit="10"/>
</g>
<g clip-path="url(#clip1)">
<path d="M98.296 15.6527C97.2507 15.6527 96.462 15.4194 95.93 14.9527C95.398 14.486 95.132 13.8047 95.132 12.9087V12.3487C95.132 11.966 95.1833 11.6534 95.286 11.4107C95.3887 11.1587 95.5147 10.93 95.664 10.7247C95.8133 10.5194 95.9347 10.3374 96.028 10.1787C96.1307 10.0107 96.182 9.83804 96.182 9.6607C96.182 9.4927 96.14 9.37604 96.056 9.3107C95.972 9.23604 95.8693 9.1987 95.748 9.1987C95.5707 9.1987 95.3653 9.2547 95.132 9.3667L94.796 8.0507C95.0573 7.9107 95.3373 7.81737 95.636 7.7707C95.944 7.7147 96.2147 7.6867 96.448 7.6867C97.064 7.6867 97.498 7.83604 97.75 8.1347C98.0113 8.42404 98.142 8.81604 98.142 9.3107C98.142 9.60004 98.1 9.8567 98.016 10.0807C97.932 10.2954 97.8247 10.5194 97.694 10.7527C97.5633 10.9674 97.4513 11.168 97.358 11.3547C97.2647 11.5414 97.218 11.812 97.218 12.1667V12.7267C97.218 13.184 97.3113 13.5154 97.498 13.7207C97.694 13.9167 97.9647 14.0147 98.31 14.0147C99.0287 14.0147 99.388 13.6087 99.388 12.7967V7.7987H101.474V12.8527C101.474 13.7767 101.203 14.4767 100.662 14.9527C100.121 15.4194 99.332 15.6527 98.296 15.6527ZM99.4242 6.7347C98.9856 6.7347 98.6402 6.66937 98.3882 6.5387C98.1362 6.40804 97.9589 6.2447 97.8562 6.0487C97.7442 5.84337 97.6882 5.6287 97.6882 5.4047C97.6882 5.05004 97.7816 4.70937 97.9682 4.3827L99.4942 4.5787C99.4476 4.7187 99.4242 4.84937 99.4242 4.9707C99.4242 5.10137 99.4662 5.20404 99.5502 5.2787C99.6249 5.34404 99.7556 5.3767 99.9422 5.3767H102.952V6.7347H99.4242ZM99.0003 3.5567V2.9827C99.0936 2.9547 99.2103 2.9127 99.3503 2.8567C99.4809 2.8007 99.5976 2.7307 99.7003 2.6467C99.8029 2.55337 99.8543 2.43204 99.8543 2.2827C99.8543 2.18004 99.8263 2.1007 99.7703 2.0447C99.7049 1.97937 99.6256 1.9467 99.5323 1.9467C99.3736 1.9467 99.2383 1.99337 99.1263 2.0867L98.8743 1.2747C99.0423 1.14404 99.2523 1.06004 99.5043 1.0227C99.7469 0.976036 99.9569 0.952702 100.134 0.952702C100.489 0.952702 100.778 1.02737 101.002 1.1767C101.217 1.3167 101.324 1.55004 101.324 1.8767C101.324 1.9607 101.315 2.04937 101.296 2.1427C101.278 2.2267 101.245 2.30604 101.198 2.3807H102.85V3.5567H99.0003ZM105.475 15.6527C104.999 15.6527 104.551 15.5967 104.131 15.4847C103.711 15.382 103.319 15.2327 102.955 15.0367L103.515 13.5107C103.721 13.632 103.968 13.7394 104.257 13.8327C104.547 13.926 104.831 13.9727 105.111 13.9727C105.634 13.9727 106.049 13.7767 106.357 13.3847C106.665 12.9834 106.819 12.386 106.819 11.5927C106.819 10.8554 106.665 10.2907 106.357 9.8987C106.049 9.49737 105.569 9.2967 104.915 9.2967C104.607 9.2967 104.29 9.34337 103.963 9.4367C103.637 9.5207 103.366 9.62804 103.151 9.7587V8.0367C103.441 7.90604 103.767 7.80337 104.131 7.7287C104.495 7.65404 104.883 7.6167 105.293 7.6167C106.581 7.6167 107.515 7.97137 108.093 8.6807C108.672 9.3807 108.961 10.3514 108.961 11.5927C108.961 12.9274 108.658 13.94 108.051 14.6307C107.445 15.312 106.586 15.6527 105.475 15.6527ZM114.081 15.6527C112.858 15.6527 111.976 15.3727 111.435 14.8127C110.893 14.2434 110.623 13.422 110.623 12.3487V7.7987H112.723V12.4607C112.723 12.9554 112.83 13.3334 113.045 13.5947C113.269 13.8467 113.614 13.9727 114.081 13.9727C114.547 13.9727 114.888 13.8467 115.103 13.5947C115.327 13.3334 115.439 12.9554 115.439 12.4607V5.0407H117.539V12.3487C117.539 13.422 117.263 14.2434 116.713 14.8127C116.171 15.3727 115.294 15.6527 114.081 15.6527ZM122.141 15.6527C121.591 15.6527 121.035 15.592 120.475 15.4707C119.925 15.3494 119.435 15.1767 119.005 14.9527L119.593 13.2867C119.873 13.436 120.233 13.5947 120.671 13.7627C121.11 13.9214 121.572 14.0007 122.057 14.0007C122.813 14.0007 123.191 13.7814 123.191 13.3427C123.191 13.1 123.047 12.9134 122.757 12.7827C122.477 12.6427 122.085 12.484 121.581 12.3067C121.087 12.1387 120.662 11.952 120.307 11.7467C119.953 11.5414 119.677 11.2894 119.481 10.9907C119.295 10.692 119.201 10.314 119.201 9.8567C119.201 9.09137 119.486 8.5267 120.055 8.1627C120.634 7.7987 121.404 7.6167 122.365 7.6167C122.888 7.6167 123.359 7.66337 123.779 7.7567C124.199 7.8407 124.526 7.94337 124.759 8.0647V9.7167C124.517 9.6047 124.171 9.49737 123.723 9.3947C123.285 9.2827 122.865 9.2267 122.463 9.2267C121.689 9.2267 121.301 9.4227 121.301 9.8147C121.301 10.0387 121.451 10.216 121.749 10.3467C122.057 10.468 122.487 10.622 123.037 10.8087C123.765 11.0607 124.321 11.364 124.703 11.7187C125.095 12.0734 125.291 12.5774 125.291 13.2307C125.291 13.6507 125.193 14.0474 124.997 14.4207C124.811 14.7847 124.489 15.0834 124.031 15.3167C123.574 15.5407 122.944 15.6527 122.141 15.6527ZM128.071 10.9487C127.427 10.9487 126.975 10.8087 126.713 10.5287C126.461 10.2394 126.335 9.90804 126.335 9.5347C126.335 9.20804 126.429 8.87204 126.615 8.5267L128.141 8.7227C128.095 8.8627 128.071 9.01204 128.071 9.1707C128.071 9.30137 128.109 9.39937 128.183 9.4647C128.258 9.53004 128.389 9.5627 128.575 9.5627H130.157V10.9487H128.071ZM128.071 14.8687C127.427 14.8687 126.975 14.7287 126.713 14.4487C126.461 14.1594 126.335 13.828 126.335 13.4547C126.335 13.128 126.429 12.792 126.615 12.4467L128.141 12.6427C128.095 12.7827 128.071 12.932 128.071 13.0907C128.071 13.2214 128.109 13.3194 128.183 13.3847C128.258 13.45 128.389 13.4827 128.575 13.4827H130.157V14.8687H128.071ZM135.035 15.6527C133.971 15.6527 133.164 15.4194 132.613 14.9527C132.072 14.4767 131.801 13.7954 131.801 12.9087V12.3627C131.801 11.9894 131.843 11.6767 131.927 11.4247C132.02 11.1634 132.142 10.93 132.291 10.7247C132.44 10.5194 132.562 10.3374 132.655 10.1787C132.758 10.0107 132.809 9.83804 132.809 9.6607C132.809 9.4927 132.767 9.37604 132.683 9.3107C132.599 9.23604 132.496 9.1987 132.375 9.1987C132.198 9.1987 131.992 9.2547 131.759 9.3667L131.423 8.0507C131.684 7.9107 131.964 7.81737 132.263 7.7707C132.571 7.7147 132.842 7.6867 133.075 7.6867C133.691 7.6867 134.125 7.83604 134.377 8.1347C134.638 8.42404 134.769 8.81604 134.769 9.3107C134.769 9.60004 134.727 9.8567 134.643 10.0807C134.559 10.2954 134.452 10.5194 134.321 10.7527C134.19 10.9674 134.083 11.168 133.999 11.3547C133.915 11.5414 133.873 11.812 133.873 12.1667V12.6987C133.873 13.1654 133.971 13.5014 134.167 13.7067C134.372 13.912 134.662 14.0147 135.035 14.0147C135.436 14.0147 135.721 13.9074 135.889 13.6927C136.066 13.478 136.155 13.1794 136.155 12.7967V11.4387C136.155 11.1587 136.09 10.9394 135.959 10.7807C135.838 10.6127 135.628 10.5287 135.329 10.5287H135.259V9.4227H135.343C135.632 9.4227 135.847 9.34337 135.987 9.1847C136.127 9.02604 136.216 8.82537 136.253 8.5827C136.3 8.3307 136.323 8.06937 136.323 7.7987H138.409C138.409 8.37737 138.334 8.85337 138.185 9.2267C138.036 9.5907 137.774 9.83804 137.401 9.9687V10.0247C137.728 10.1274 137.947 10.3047 138.059 10.5567C138.18 10.8087 138.241 11.098 138.241 11.4247V12.8527C138.241 13.7767 137.97 14.4767 137.429 14.9527C136.888 15.4194 136.09 15.6527 135.035 15.6527ZM142.184 15.4707V10.4027C142.184 10.0107 142.09 9.72604 141.904 9.5487C141.726 9.37137 141.432 9.2827 141.022 9.2827C140.714 9.2827 140.429 9.3247 140.168 9.4087C139.916 9.4927 139.678 9.59537 139.454 9.7167V8.0367C139.659 7.94337 139.948 7.85004 140.322 7.7567C140.695 7.66337 141.134 7.6167 141.638 7.6167C142.151 7.6167 142.604 7.69137 142.996 7.8407C143.397 7.99004 143.71 8.24204 143.934 8.5967C144.167 8.94204 144.284 9.41804 144.284 10.0247V15.4707H142.184ZM149.262 15.6527C148.683 15.6527 148.128 15.6014 147.596 15.4987C147.073 15.396 146.606 15.27 146.196 15.1207V12.0967H147.988V14.0007C148.128 14.0474 148.3 14.0894 148.506 14.1267C148.72 14.164 148.94 14.1827 149.164 14.1827C149.546 14.1827 149.868 14.1127 150.13 13.9727C150.4 13.8234 150.536 13.548 150.536 13.1467C150.536 12.848 150.447 12.624 150.27 12.4747C150.102 12.3254 149.854 12.2087 149.528 12.1247C149.201 12.0314 148.809 11.924 148.352 11.8027C147.838 11.672 147.404 11.5274 147.05 11.3687C146.695 11.21 146.42 11.0047 146.224 10.7527C146.037 10.5007 145.944 10.1647 145.944 9.7447C145.944 8.97004 146.242 8.42404 146.84 8.1067C147.437 7.78004 148.24 7.6167 149.248 7.6167C149.882 7.6167 150.428 7.66804 150.886 7.7707C151.352 7.86404 151.707 7.96204 151.95 8.0647V9.6747C151.763 9.60004 151.52 9.52537 151.222 9.4507C150.923 9.3667 150.592 9.2967 150.228 9.2407C149.864 9.1847 149.5 9.1567 149.136 9.1567C148.828 9.1567 148.566 9.18937 148.352 9.2547C148.146 9.32004 148.044 9.44137 148.044 9.6187C148.044 9.76804 148.128 9.8847 148.296 9.9687C148.464 10.0434 148.692 10.118 148.982 10.1927C149.28 10.258 149.63 10.3514 150.032 10.4727C150.564 10.6314 151.016 10.8134 151.39 11.0187C151.763 11.224 152.048 11.4947 152.244 11.8307C152.44 12.1574 152.538 12.582 152.538 13.1047C152.538 13.59 152.435 14.024 152.23 14.4067C152.034 14.7894 151.698 15.0927 151.222 15.3167C150.746 15.5407 150.092 15.6527 149.262 15.6527ZM145.806 6.7347V5.8527L147.22 5.2647H152.218V6.7347H145.806ZM157.516 15.6527C156.293 15.6527 155.411 15.3727 154.87 14.8127C154.329 14.2434 154.058 13.422 154.058 12.3487V7.7987H156.158V12.4607C156.158 12.9554 156.265 13.3334 156.48 13.5947C156.704 13.8467 157.049 13.9727 157.516 13.9727C157.983 13.9727 158.323 13.8467 158.538 13.5947C158.762 13.3334 158.874 12.9554 158.874 12.4607V5.0407H160.974V12.3487C160.974 13.422 160.699 14.2434 160.148 14.8127C159.607 15.3727 158.729 15.6527 157.516 15.6527ZM155.945 6.7347C155.506 6.7347 155.161 6.66937 154.909 6.5387C154.657 6.40804 154.48 6.2447 154.377 6.0487C154.265 5.84337 154.209 5.6287 154.209 5.4047C154.209 5.05937 154.298 4.7187 154.475 4.3827L156.001 4.5787C155.982 4.64404 155.968 4.71404 155.959 4.7887C155.95 4.85404 155.945 4.9147 155.945 4.9707C155.945 5.10137 155.987 5.20404 156.071 5.2787C156.146 5.34404 156.276 5.3767 156.463 5.3767H158.227V6.7347H155.945ZM165.871 15.6107C165.04 15.6107 164.392 15.4427 163.925 15.1067C163.468 14.7614 163.146 14.2854 162.959 13.6787C162.782 13.0627 162.693 12.3487 162.693 11.5367C162.693 10.1834 162.894 9.1987 163.295 8.5827C163.696 7.9667 164.294 7.6587 165.087 7.6587C165.414 7.6587 165.698 7.72404 165.941 7.8547C166.193 7.97604 166.394 8.2047 166.543 8.5407H166.599C166.73 8.19537 166.944 7.96204 167.243 7.8407C167.542 7.71937 167.864 7.6587 168.209 7.6587C168.853 7.6587 169.334 7.83137 169.651 8.1767C169.978 8.52204 170.141 9.02604 170.141 9.6887V15.4707H168.041V10.0807C168.041 9.79137 167.994 9.59537 167.901 9.4927C167.808 9.39004 167.682 9.3387 167.523 9.3387C167.346 9.3387 167.21 9.39004 167.117 9.4927C167.033 9.59537 166.977 9.76804 166.949 10.0107H166.123C166.086 9.74937 166.016 9.57204 165.913 9.4787C165.81 9.38537 165.689 9.3387 165.549 9.3387C165.306 9.3387 165.124 9.5067 165.003 9.8427C164.882 10.1787 164.821 10.748 164.821 11.5507C164.821 12.344 164.914 12.9554 165.101 13.3847C165.288 13.8047 165.652 14.0147 166.193 14.0147C166.417 14.0147 166.599 13.9867 166.739 13.9307L166.949 15.4287C166.65 15.55 166.291 15.6107 165.871 15.6107ZM163.402 6.7347V5.8527L164.816 5.2647H169.814V6.7347H163.402ZM175.353 15.6527C174.513 15.6527 173.841 15.5547 173.337 15.3587C172.833 15.1534 172.464 14.8687 172.231 14.5047C172.007 14.1407 171.895 13.7207 171.895 13.2447C171.895 12.8434 171.956 12.5167 172.077 12.2647C172.208 12.0034 172.371 11.8074 172.567 11.6767C172.763 11.5367 172.968 11.4434 173.183 11.3967V11.3127C172.856 11.21 172.558 11.0327 172.287 10.7807C172.026 10.5194 171.895 10.1367 171.895 9.6327C171.895 9.28737 171.974 8.96537 172.133 8.6667C172.301 8.36804 172.567 8.13004 172.931 7.9527C173.295 7.76604 173.776 7.6727 174.373 7.6727C174.662 7.6727 174.938 7.69604 175.199 7.7427C175.47 7.78004 175.684 7.83604 175.843 7.9107L175.521 9.3247C175.446 9.30604 175.344 9.28737 175.213 9.2687C175.082 9.2407 174.956 9.2267 174.835 9.2267C174.546 9.2267 174.331 9.2967 174.191 9.4367C174.051 9.56737 173.981 9.74004 173.981 9.9547C173.981 10.3 174.112 10.5287 174.373 10.6407C174.634 10.7434 174.919 10.7947 175.227 10.7947H175.521V12.0967H175.227C174.826 12.0967 174.522 12.1667 174.317 12.3067C174.121 12.4467 174.023 12.6754 174.023 12.9927C174.023 13.17 174.06 13.338 174.135 13.4967C174.219 13.6554 174.359 13.7907 174.555 13.9027C174.751 14.0054 175.031 14.0567 175.395 14.0567C175.908 14.0567 176.263 13.9494 176.459 13.7347C176.655 13.5107 176.753 13.2354 176.753 12.9087V7.7987H178.853V12.8387C178.853 13.8 178.568 14.5094 177.999 14.9667C177.439 15.424 176.557 15.6527 175.353 15.6527ZM176.233 7.0427C176.159 6.91204 176.098 6.74404 176.051 6.5387C175.995 6.33337 175.967 6.12804 175.967 5.9227C175.967 5.5307 176.084 5.19937 176.317 4.9287C176.551 4.6487 176.994 4.5087 177.647 4.5087H179.677V5.9227H178.333C177.96 5.9227 177.773 6.0627 177.773 6.3427C177.773 6.47337 177.811 6.61337 177.885 6.7627L176.233 7.0427Z" fill="black"/>
<g clip-path="url(#clip2)">
<g clip-path="url(#clip3)">
<path d="M116.7 40.9707C116.7 40.9707 116.8 42.7707 116.9 43.2707" stroke="black" stroke-width="0.75" stroke-miterlimit="10" stroke-linecap="round" stroke-linejoin="round"/>
<path d="M115.7 40.6704C115.7 40.6704 116.7 41.6704 116.8 42.6704" stroke="black" stroke-width="0.5" stroke-miterlimit="10" stroke-linecap="round" stroke-linejoin="round"/>
<path d="M116.3 42.3706C116.3 42.3706 115.9 43.4706 116.7 44.0706" stroke="black" stroke-width="0.5" stroke-miterlimit="10" stroke-linecap="round" stroke-linejoin="round"/>
<path d="M117.3 46.3704L117.1 45.1704" stroke="black" stroke-width="0.75" stroke-miterlimit="10" stroke-linecap="round" stroke-linejoin="round"/>
<path d="M121.7 47.2705C121.7 47.2705 124.7 47.3705 127.5 47.2705" stroke="black" stroke-width="0.75" stroke-miterlimit="10" stroke-linecap="round" stroke-linejoin="round"/>
<path d="M122.6 38.1708C122.6 38.1708 120.5 37.4708 119 38.4708L118.6 39.3708C118.6 39.3708 120.8 37.8708 122.8 38.6708L122.6 38.1708Z" fill="black" stroke="black" stroke-width="0.75" stroke-miterlimit="10" stroke-linecap="round" stroke-linejoin="round"/>
<path d="M126 38.3707C126 38.3707 128 37.7707 129.7 38.1707L130.5 38.9707C130.5 38.9707 128.3 38.1707 126.3 38.9707L126 38.3707Z" fill="black" stroke="black" stroke-width="0.75" stroke-miterlimit="10" stroke-linecap="round" stroke-linejoin="round"/>
<path d="M119 40.6708C119 40.6708 121 38.8708 122.4 40.4708" stroke="black" stroke-width="0.75" stroke-miterlimit="10" stroke-linecap="round" stroke-linejoin="round"/>
<path d="M120.9 40.6706C121.121 40.6706 121.3 40.4915 121.3 40.2706C121.3 40.0497 121.121 39.8706 120.9 39.8706C120.679 39.8706 120.5 40.0497 120.5 40.2706C120.5 40.4915 120.679 40.6706 120.9 40.6706Z" fill="black" stroke="black" stroke-width="0.75" stroke-miterlimit="10" stroke-linecap="round" stroke-linejoin="round"/>
<path d="M128.1 40.6706C128.321 40.6706 128.5 40.4915 128.5 40.2706C128.5 40.0497 128.321 39.8706 128.1 39.8706C127.879 39.8706 127.7 40.0497 127.7 40.2706C127.7 40.4915 127.879 40.6706 128.1 40.6706Z" fill="black" stroke="black" stroke-width="0.75" stroke-miterlimit="10" stroke-linecap="round" stroke-linejoin="round"/>
<path d="M130 40.6708C130 40.6708 128 38.8708 126.6 40.4708" stroke="black" stroke-width="0.75" stroke-miterlimit="10" stroke-linecap="round" stroke-linejoin="round"/>
<path d="M130.2 32.1708C131.7 33.5708 132.3 40.9708 132.3 40.9708C132.3 40.9708 132.5 40.2708 133.2 39.8708C133.8 39.3708 134 40.4708 133.8 41.5708C133.5 42.5708 133.9 44.0708 133.2 45.3708C132.5 46.6708 131.9 46.3708 131.9 46.3708C131.9 46.3708 131.5 49.1708 129.2 50.5708C126.9 51.9708 126.2 52.4708 124.5 52.4708C122.8 52.4708 122.2 51.9708 120 50.5708C117.8 49.1708 117.3 46.3708 117.3 46.3708C117.3 46.3708 116.7 46.6708 116 45.3708C115.3 44.0708 115.7 42.5708 115.4 41.5708C115.1 40.5708 115.3 39.4708 116 39.8708C116.6 40.3708 116.9 40.9708 116.9 40.9708C116.9 40.9708 117.5 34.6708 119 33.1708C120.5 31.6708 123.5 31.2708 130.2 32.1708Z" stroke="black" stroke-width="0.75" stroke-miterlimit="10" stroke-linecap="round" stroke-linejoin="round"/>
<path d="M132.3 40.9707C132.3 40.9707 132.2 42.7707 132.1 43.2707" stroke="black" stroke-width="0.75" stroke-miterlimit="10" stroke-linecap="round" stroke-linejoin="round"/>
<path d="M133.3 40.6704C133.3 40.6704 132.3 41.6704 132.2 42.6704" stroke="black" stroke-width="0.5" stroke-miterlimit="10" stroke-linecap="round" stroke-linejoin="round"/>
<path d="M132.8 42.3706C132.8 42.3706 133.2 43.4706 132.4 44.0706" stroke="black" stroke-width="0.5" stroke-miterlimit="10" stroke-linecap="round" stroke-linejoin="round"/>
<path d="M131.8 46.3704L131.9 45.1704" stroke="black" stroke-width="0.75" stroke-miterlimit="10" stroke-linecap="round" stroke-linejoin="round"/>
<path d="M126 44.3706C126 44.3706 125.6 44.4706 125.1 44.7706C124.7 45.0706 124.7 45.0706 124.5 45.0706C124.3 45.0706 124.3 45.0706 123.9 44.7706C123.5 44.4706 123 44.3706 123 44.3706" stroke="black" stroke-width="0.75" stroke-miterlimit="10" stroke-linecap="round" stroke-linejoin="round"/>
<path d="M123.2 42.8707L123.9 38.9707" stroke="black" stroke-width="0.5" stroke-miterlimit="10" stroke-linecap="round" stroke-linejoin="round"/>
<path d="M130 32.1706C130 32.1706 122.7 30.9706 119.8 33.4706C119.8 33.4706 121.2 31.6706 124.5 30.8706" fill="black"/>
<path d="M130 32.1706C130 32.1706 122.7 30.9706 119.8 33.4706C119.8 33.4706 121.2 31.6706 124.5 30.8706" stroke="black" stroke-width="0.75" stroke-miterlimit="10" stroke-linecap="round" stroke-linejoin="round"/>
<path d="M115.9 39.8706C116.5 40.3706 116.8 40.9706 116.8 40.9706C116.8 40.9706 117.2 34.4706 118.8 33.2706C121.9 30.8706 123.5 31.2706 130.2 32.1706C131.7 33.5706 132.3 40.9706 132.3 40.9706C132.3 40.9706 132.4 40.8706 132.5 40.6706C137.3 32.3706 130.4 30.8706 130.4 30.8706C127.2 25.8706 120.3 28.2706 117.6 30.1706C115 32.0706 114.6 33.7706 114.5 35.6706C114.4 37.5706 115.5 39.7706 115.5 39.7706C115.6 39.6706 115.7 39.6706 115.9 39.8706Z" fill="black" stroke="black" stroke-width="0.75" stroke-miterlimit="10" stroke-linecap="round" stroke-linejoin="round"/>
<path d="M123.1 38.1704L122.8 38.6704" stroke="black" stroke-width="0.75" stroke-miterlimit="10" stroke-linecap="round" stroke-linejoin="round"/>
<path d="M130.4 30.8706C130.4 30.8706 129.8 28.8706 128.2 27.8706" stroke="black" stroke-width="0.75" stroke-miterlimit="10" stroke-linecap="round" stroke-linejoin="round"/>
<path d="M123.368 44.5938C123.383 44.5407 123.265 44.4611 123.106 44.4162C122.946 44.3713 122.805 44.3779 122.79 44.4311C122.775 44.4843 122.892 44.5638 123.052 44.6087C123.211 44.6536 123.353 44.647 123.368 44.5938Z" fill="black" stroke="black" stroke-width="0.75" stroke-miterlimit="10" stroke-linecap="round" stroke-linejoin="round"/>
<path d="M126.016 44.555C126.175 44.5101 126.293 44.4305 126.278 44.3774C126.263 44.3242 126.121 44.3176 125.962 44.3625C125.802 44.4074 125.685 44.4869 125.7 44.5401C125.715 44.5933 125.856 44.5999 126.016 44.555Z" fill="black" stroke="black" stroke-width="0.75" stroke-miterlimit="10" stroke-linecap="round" stroke-linejoin="round"/>
</g>
<g clip-path="url(#clip4)">
<path d="M148.1 45.6206C147.6 45.3206 147.6 44.7206 148.2 44.1206" stroke="black" stroke-width="0.5" stroke-miterlimit="10" stroke-linecap="round" stroke-linejoin="round"/>
<path d="M147.2 48.1206C147.2 48.1206 149.5 49.0206 152.4 48.1206" stroke="black" stroke-width="0.75" stroke-miterlimit="10" stroke-linecap="round" stroke-linejoin="round"/>
<path d="M147.2 47.6206L146.8 48.8206" stroke="black" stroke-width="0.5" stroke-miterlimit="10" stroke-linecap="round" stroke-linejoin="round"/>
<path d="M152.2 47.6206L152.7 48.8206" stroke="black" stroke-width="0.5" stroke-miterlimit="10" stroke-linecap="round" stroke-linejoin="round"/>
<path d="M147.9 44.5205C147.9 44.5205 147.1 45.5205 146.7 46.2205" stroke="black" stroke-width="0.5" stroke-miterlimit="10" stroke-linecap="round" stroke-linejoin="round"/>
<path d="M141.9 40.3208V42.3208" stroke="black" stroke-width="0.75" stroke-miterlimit="10" stroke-linecap="round" stroke-linejoin="round"/>
<path d="M140.4 39.9206C140.4 39.9206 140.9 39.6206 141.9 41.9206" stroke="black" stroke-width="0.5" stroke-miterlimit="10" stroke-linecap="round" stroke-linejoin="round"/>
<path d="M141.3 41.7207C141.3 41.7207 140.9 42.8207 141.6 43.5207" stroke="black" stroke-width="0.5" stroke-miterlimit="10" stroke-linecap="round" stroke-linejoin="round"/>
<path d="M147.7 40.9206C147.7 40.9206 147.3 39.5206 144.5 41.3206" stroke="black" stroke-width="0.75" stroke-miterlimit="10" stroke-linecap="round" stroke-linejoin="round"/>
<path d="M146.8 40.7209C146.8 40.9209 146.6 41.0209 146.4 41.0209C146.2 41.0209 146 40.9209 146 40.7209C146 40.5209 146.4 40.4209 146.6 40.4209C146.9 40.4209 146.8 40.5209 146.8 40.7209Z" fill="black" stroke="black" stroke-width="0.75" stroke-miterlimit="10" stroke-linecap="round" stroke-linejoin="round"/>
<path d="M148 38.0206C148 38.0206 146.8 36.9206 145.8 37.0206C144.8 37.1206 143.6 38.4206 143.6 38.4206" stroke="black" stroke-width="0.5" stroke-miterlimit="10" stroke-linecap="round" stroke-linejoin="round"/>
<path d="M146.9 38.1209C146.9 38.1209 145.9 36.9209 144.6 37.9209" stroke="black" stroke-width="0.5" stroke-miterlimit="10" stroke-linecap="round" stroke-linejoin="round"/>
<path d="M143.5 40.7207C143.5 40.7207 143.4 39.7207 144.7 39.3207C146 38.9207 148 39.2207 148.4 39.5207C148.8 39.8207 149.2 40.0207 148.9 41.1207C148.7 42.2207 148.3 42.9207 146.1 42.9207C143.9 42.9207 143.5 41.6207 143.5 40.7207Z" stroke="black" stroke-width="0.75" stroke-miterlimit="10" stroke-linecap="round" stroke-linejoin="round"/>
<path d="M142.3 45.5209L142.2 44.9209" stroke="black" stroke-width="0.75" stroke-miterlimit="10" stroke-linecap="round" stroke-linejoin="round"/>
<path d="M149.7 32.1209C152.8 30.7209 154.4 31.1209 155.2 32.2209C156 33.3209 156.5 35.7209 156.5 35.7209C157.5 37.1209 157.6 40.4209 157.6 40.4209C157.6 40.4209 158.1 39.0209 159 39.0209C159.7 39.0209 159.5 40.4209 159.3 42.6209C159.1 44.8209 158.1 45.9209 157.2 45.6209C157.2 45.6209 156.3 48.1209 155.2 49.7209C154.3 51.0209 151.7 52.5209 149.8 52.5209C147.9 52.5209 145.3 51.0209 144.4 49.7209C143.3 48.1209 142.4 45.6209 142.4 45.6209C141.5 45.8209 140.5 44.7209 140.3 42.6209C140.1 40.5209 139.8 39.0209 140.6 39.0209C141.6 39.0209 142 40.4209 142 40.4209C142 40.4209 142.1 37.1209 143.1 35.7209C143.1 35.7209 143.5 33.3209 144.4 32.2209C145.3 31.1209 146.6 30.7209 149.7 32.1209Z" stroke="black" stroke-width="0.75" stroke-miterlimit="10" stroke-linecap="round" stroke-linejoin="round"/>
<path d="M157.6 40.3208V42.3208" stroke="black" stroke-width="0.75" stroke-miterlimit="10" stroke-linecap="round" stroke-linejoin="round"/>
<path d="M159.1 39.9206C159.1 39.9206 158.6 39.6206 157.6 41.9206" stroke="black" stroke-width="0.5" stroke-miterlimit="10" stroke-linecap="round" stroke-linejoin="round"/>
<path d="M158.2 41.7207C158.2 41.7207 158.6 42.8207 157.9 43.5207" stroke="black" stroke-width="0.5" stroke-miterlimit="10" stroke-linecap="round" stroke-linejoin="round"/>
<path d="M157.1 45.5209L157.3 44.9209" stroke="black" stroke-width="0.75" stroke-miterlimit="10" stroke-linecap="round" stroke-linejoin="round"/>
<path d="M151.4 45.6206C151.9 45.4206 151.8 44.8206 151.2 44.1206" stroke="black" stroke-width="0.5" stroke-miterlimit="10" stroke-linecap="round" stroke-linejoin="round"/>
<path d="M151.6 44.5205C151.6 44.5205 152.4 45.5205 152.8 46.2205" stroke="black" stroke-width="0.5" stroke-miterlimit="10" stroke-linecap="round" stroke-linejoin="round"/>
<path d="M151.8 40.9206C151.8 40.9206 152.2 39.5206 155 41.3206" stroke="black" stroke-width="0.75" stroke-miterlimit="10" stroke-linecap="round" stroke-linejoin="round"/>
<path d="M152.7 40.7209C152.7 40.9209 152.9 41.0209 153.1 41.0209C153.3 41.0209 153.5 40.9209 153.5 40.7209C153.5 40.5209 153.1 40.4209 152.9 40.4209C152.7 40.4209 152.7 40.5209 152.7 40.7209Z" fill="black" stroke="black" stroke-width="0.75" stroke-miterlimit="10" stroke-linecap="round" stroke-linejoin="round"/>
<path d="M156 40.7207C156 40.7207 156.1 39.7207 154.8 39.3207C153.5 38.9207 151.5 39.2207 151.1 39.5207C150.7 39.8207 150.3 40.0207 150.6 41.1207C150.8 42.2207 151.2 42.9207 153.4 42.9207C155.6 42.9207 156 41.6207 156 40.7207Z" stroke="black" stroke-width="0.75" stroke-miterlimit="10" stroke-linecap="round" stroke-linejoin="round"/>
<path d="M150.9 45.2207C150.9 45.2207 150.8 45.3207 150.4 45.6207C150.1 45.8207 149.7 45.8207 149.7 45.8207C149.7 45.8207 149.3 45.8207 149 45.6207C148.7 45.3207 148.6 45.2207 148.6 45.2207" stroke="black" stroke-width="0.75" stroke-miterlimit="10" stroke-linecap="round" stroke-linejoin="round"/>
<path d="M149 40.3208C149 40.3208 149.5 39.9208 150.5 40.3208" stroke="black" stroke-width="0.75" stroke-miterlimit="10" stroke-linecap="round" stroke-linejoin="round"/>
<path d="M143.5 40.5205H143L141 39.0205" stroke="black" stroke-width="0.75" stroke-miterlimit="10" stroke-linecap="round" stroke-linejoin="round"/>
<path d="M155.9 40.5205H156.5L158.5 39.0205" stroke="black" stroke-width="0.75" stroke-miterlimit="10" stroke-linecap="round" stroke-linejoin="round"/>
<path d="M149 31.8207C149 31.8207 143.7 30.1207 144.1 35.7207" stroke="black" stroke-width="0.75" stroke-miterlimit="10" stroke-linecap="round" stroke-linejoin="round"/>
<path d="M141 39.0207C141.6 39.4207 141.9 40.3207 141.9 40.3207C141.9 40.3207 142.5 36.7207 143.5 35.3207C143.5 35.3207 143.4 33.2207 144.3 32.1207C145.1 31.1207 146.6 30.7207 149.7 32.1207C152.8 30.7207 154.7 32.3207 155.5 33.4207C156.3 34.5207 156.4 35.7207 156.4 35.7207C157.4 37.1207 157.5 40.4207 157.5 40.4207C157.5 40.4207 157.5 40.3207 157.6 40.2207L157.5 39.9207C158.8 38.7207 159.1 37.8207 158.6 34.9207C158.1 32.0207 155.4 31.1207 155.4 31.1207C155 27.8207 148.5 27.5207 145.1 28.1207C141.6 28.8207 142.2 31.9207 141.8 33.0207C141.4 34.0207 140.3 34.2207 140.3 36.0207C140.2 37.8207 141 39.0207 141 39.0207Z" fill="black" stroke="black" stroke-width="0.75" stroke-miterlimit="10" stroke-linecap="round" stroke-linejoin="round"/>
<path d="M144.6 37.5207C144.6 37.5207 146 36.6207 147.5 38.1207" stroke="black" stroke-width="0.5" stroke-miterlimit="10" stroke-linecap="round" stroke-linejoin="round"/>
<path d="M151.5 38.0206C151.5 38.0206 152.7 36.9206 153.7 37.0206C154.7 37.1206 155.9 38.4206 155.9 38.4206" stroke="black" stroke-width="0.5" stroke-miterlimit="10" stroke-linecap="round" stroke-linejoin="round"/>
<path d="M152.5 38.1209C152.5 38.1209 153.5 36.9209 154.8 37.9209" stroke="black" stroke-width="0.5" stroke-miterlimit="10" stroke-linecap="round" stroke-linejoin="round"/>
<path d="M154.9 37.5206C154.9 37.5206 153.5 36.5206 152 38.1206" stroke="black" stroke-width="0.5" stroke-miterlimit="10" stroke-linecap="round" stroke-linejoin="round"/>
</g>
</g>
</g>
<g clip-path="url(#clip5)">
<path d="M229.58 306.653C228.535 306.653 227.746 306.419 227.214 305.953C226.682 305.486 226.416 304.805 226.416 303.909V303.349C226.416 302.966 226.468 302.653 226.57 302.411C226.673 302.159 226.799 301.93 226.948 301.725C227.098 301.519 227.219 301.337 227.312 301.179C227.415 301.011 227.466 300.838 227.466 300.661C227.466 300.493 227.424 300.376 227.34 300.311C227.256 300.236 227.154 300.199 227.032 300.199C226.855 300.199 226.65 300.255 226.416 300.367L226.08 299.051C226.342 298.911 226.622 298.817 226.92 298.771C227.228 298.715 227.499 298.687 227.732 298.687C228.348 298.687 228.782 298.836 229.034 299.135C229.296 299.424 229.426 299.816 229.426 300.311C229.426 300.6 229.384 300.857 229.3 301.081C229.216 301.295 229.109 301.519 228.978 301.753C228.848 301.967 228.736 302.168 228.642 302.355C228.549 302.541 228.502 302.812 228.502 303.167V303.727C228.502 304.184 228.596 304.515 228.782 304.721C228.978 304.917 229.249 305.015 229.594 305.015C230.313 305.015 230.672 304.609 230.672 303.797V298.799H232.758V303.853C232.758 304.777 232.488 305.477 231.946 305.953C231.405 306.419 230.616 306.653 229.58 306.653ZM230.708 297.735C230.27 297.735 229.924 297.669 229.672 297.539C229.42 297.408 229.243 297.245 229.14 297.049C229.028 296.843 228.972 296.629 228.972 296.405C228.972 296.05 229.066 295.709 229.252 295.383L230.778 295.579C230.732 295.719 230.708 295.849 230.708 295.971C230.708 296.101 230.75 296.204 230.834 296.279C230.909 296.344 231.04 296.377 231.226 296.377H234.236V297.735H230.708ZM230.284 294.557V293.983C230.378 293.955 230.494 293.913 230.634 293.857C230.765 293.801 230.882 293.731 230.984 293.647C231.087 293.553 231.138 293.432 231.138 293.283C231.138 293.18 231.11 293.101 231.054 293.045C230.989 292.979 230.91 292.947 230.816 292.947C230.658 292.947 230.522 292.993 230.41 293.087L230.158 292.275C230.326 292.144 230.536 292.06 230.788 292.023C231.031 291.976 231.241 291.953 231.418 291.953C231.773 291.953 232.062 292.027 232.286 292.177C232.501 292.317 232.608 292.55 232.608 292.877C232.608 292.961 232.599 293.049 232.58 293.143C232.562 293.227 232.529 293.306 232.482 293.381H234.134V294.557H230.284ZM236.759 306.653C236.283 306.653 235.835 306.597 235.415 306.485C234.995 306.382 234.603 306.233 234.239 306.037L234.799 304.511C235.005 304.632 235.252 304.739 235.541 304.833C235.831 304.926 236.115 304.973 236.395 304.973C236.918 304.973 237.333 304.777 237.641 304.385C237.949 303.983 238.103 303.386 238.103 302.593C238.103 301.855 237.949 301.291 237.641 300.899C237.333 300.497 236.853 300.297 236.199 300.297C235.891 300.297 235.574 300.343 235.247 300.437C234.921 300.521 234.65 300.628 234.435 300.759V299.037C234.725 298.906 235.051 298.803 235.415 298.729C235.779 298.654 236.167 298.617 236.577 298.617C237.865 298.617 238.799 298.971 239.377 299.681C239.956 300.381 240.245 301.351 240.245 302.593C240.245 303.927 239.942 304.94 239.335 305.631C238.729 306.312 237.87 306.653 236.759 306.653ZM244.063 306.611C243.428 306.611 242.943 306.466 242.607 306.177C242.28 305.878 242.117 305.425 242.117 304.819V298.799H244.217V304.567C244.217 304.912 244.38 305.085 244.707 305.085C244.847 305.085 245.005 305.052 245.183 304.987L245.379 306.331C245.024 306.517 244.585 306.611 244.063 306.611ZM247.271 306.471L245.941 298.799H247.985L248.363 301.501C248.391 301.725 248.424 302.033 248.461 302.425C248.508 302.807 248.55 303.255 248.587 303.769H248.629C248.75 303.255 248.858 302.807 248.951 302.425C249.044 302.033 249.128 301.711 249.203 301.459L249.959 298.799H251.233L251.989 301.459C252.054 301.711 252.134 302.033 252.227 302.425C252.33 302.807 252.442 303.255 252.563 303.769H252.605C252.652 303.255 252.689 302.807 252.717 302.425C252.754 302.033 252.792 301.725 252.829 301.501L253.221 298.799H255.251L253.935 306.471H251.877L250.995 303.349C250.902 302.985 250.827 302.653 250.771 302.355C250.715 302.056 250.668 301.743 250.631 301.417H250.575C250.519 301.743 250.463 302.051 250.407 302.341C250.36 302.621 250.281 302.957 250.169 303.349L249.273 306.471H247.271ZM248.298 297.735V296.853L249.712 296.265H251.238V295.299H252.568V296.265H253.394V295.299H254.71V297.735H248.298ZM252.206 294.557V291.953H254.026V294.557H252.206ZM259.711 306.653C258.572 306.653 257.727 306.377 257.177 305.827C256.626 305.267 256.351 304.441 256.351 303.349C256.351 303.171 256.355 302.947 256.365 302.677C256.383 302.406 256.407 302.168 256.435 301.963H259.795V303.293H258.409V303.489C258.409 304.049 258.511 304.459 258.717 304.721C258.931 304.973 259.258 305.099 259.697 305.099C260.163 305.099 260.527 304.935 260.789 304.609C261.05 304.282 261.181 303.675 261.181 302.789C261.181 301.958 261.031 301.337 260.733 300.927C260.443 300.507 259.916 300.297 259.151 300.297C258.731 300.297 258.297 300.362 257.849 300.493C257.401 300.623 257.032 300.768 256.743 300.927V299.177C257.041 299.018 257.452 298.887 257.975 298.785C258.497 298.673 259.02 298.617 259.543 298.617C260.448 298.617 261.176 298.785 261.727 299.121C262.287 299.447 262.693 299.914 262.945 300.521C263.206 301.127 263.337 301.846 263.337 302.677C263.337 303.955 263.052 304.94 262.483 305.631C261.913 306.312 260.989 306.653 259.711 306.653ZM267.394 306.611C266.759 306.611 266.274 306.466 265.938 306.177C265.611 305.878 265.448 305.425 265.448 304.819V298.155C265.448 297.632 265.518 297.245 265.658 296.993C265.807 296.741 265.975 296.545 266.162 296.405L266.148 296.349H263.978L264.37 294.837H268.822V296.349C268.476 296.349 268.178 296.461 267.926 296.685C267.674 296.909 267.548 297.319 267.548 297.917V304.567C267.548 304.912 267.711 305.085 268.038 305.085C268.178 305.085 268.336 305.052 268.514 304.987L268.71 306.331C268.355 306.517 267.916 306.611 267.394 306.611ZM269.909 306.471V298.799H271.449L271.729 300.003H271.841C272 299.62 272.275 299.303 272.667 299.051C273.059 298.789 273.568 298.659 274.193 298.659C275.976 298.659 276.867 299.615 276.867 301.529V306.471H274.767V301.949C274.767 301.426 274.66 301.053 274.445 300.829C274.24 300.595 273.936 300.479 273.535 300.479C273.05 300.479 272.672 300.675 272.401 301.067C272.14 301.459 272.009 302.037 272.009 302.803V306.471H269.909ZM282.069 306.653C281.229 306.653 280.557 306.555 280.053 306.359C279.549 306.153 279.18 305.869 278.947 305.505C278.723 305.141 278.611 304.721 278.611 304.245C278.611 303.843 278.671 303.517 278.793 303.265C278.923 303.003 279.087 302.807 279.283 302.677C279.479 302.537 279.684 302.443 279.899 302.397V302.313C279.572 302.21 279.273 302.033 279.003 301.781C278.741 301.519 278.611 301.137 278.611 300.633C278.611 300.287 278.69 299.965 278.849 299.667C279.017 299.368 279.283 299.13 279.647 298.953C280.011 298.766 280.491 298.673 281.089 298.673C281.378 298.673 281.653 298.696 281.915 298.743C282.185 298.78 282.4 298.836 282.559 298.911L282.237 300.325C282.162 300.306 282.059 300.287 281.929 300.269C281.798 300.241 281.672 300.227 281.551 300.227C281.261 300.227 281.047 300.297 280.907 300.437C280.767 300.567 280.697 300.74 280.697 300.955C280.697 301.3 280.827 301.529 281.089 301.641C281.35 301.743 281.635 301.795 281.943 301.795H282.237V303.097H281.943C281.541 303.097 281.238 303.167 281.033 303.307C280.837 303.447 280.739 303.675 280.739 303.993C280.739 304.17 280.776 304.338 280.851 304.497C280.935 304.655 281.075 304.791 281.271 304.903C281.467 305.005 281.747 305.057 282.111 305.057C282.624 305.057 282.979 304.949 283.175 304.735C283.371 304.511 283.469 304.235 283.469 303.909V298.799H285.569V303.839C285.569 304.8 285.284 305.509 284.715 305.967C284.155 306.424 283.273 306.653 282.069 306.653Z" fill="black"/>
<g clip-path="url(#clip6)">
<g clip-path="url(#clip7)">
<path d="M200 343.071C197.6 343.071 197.5 342.071 194.9 341.471C193.9 341.171 193.1 340.171 192.8 339.471C192.6 338.771 192.2 336.471 192.2 336.471C191.4 336.971 191.1 336.471 190.9 336.071C190.7 335.671 191.1 335.871 190.3 334.271C189.5 332.671 189.1 330.871 189.6 330.071C190.1 329.271 191.1 330.171 191.1 330.171C191.1 330.171 191.6 326.171 192.5 325.171C192.5 325.171 195.8 326.071 198.8 323.871C201.8 321.671 202.3 321.171 204.1 321.271C204.1 321.271 205.9 326.571 207.9 328.171L208.1 331.571C208.1 331.571 208.3 330.571 208.8 330.171C208.8 330.171 209.8 329.271 210.3 330.071C210.8 330.871 210.3 332.671 209.5 334.171C208.7 335.671 209 335.571 208.9 335.971C208.8 336.371 208.4 336.771 207.6 336.371C207.6 336.371 207.3 338.671 207 339.371C206.8 340.071 205.9 341.071 204.9 341.371C202.5 342.071 202.4 343.071 200 343.071Z" stroke="black" stroke-width="0.75" stroke-miterlimit="10" stroke-linecap="round" stroke-linejoin="round"/>
<path d="M192.3 336.371L192.1 334.371" stroke="black" stroke-width="0.75" stroke-miterlimit="10" stroke-linecap="round" stroke-linejoin="round"/>
<path d="M198.5 334.571C198.5 334.571 197.2 335.671 198.5 336.271" stroke="black" stroke-width="0.5" stroke-miterlimit="10" stroke-linecap="round" stroke-linejoin="round"/>
<path d="M198.2 334.871C198.2 334.871 197.4 335.871 196.9 336.471C196.5 337.071 195 337.171 194.3 336.471" stroke="black" stroke-width="0.5" stroke-miterlimit="10" stroke-linecap="round" stroke-linejoin="round"/>
<path d="M201.8 334.871C201.8 334.871 202.6 335.871 203.1 336.471C203.5 337.071 205 337.171 205.7 336.471" stroke="black" stroke-width="0.5" stroke-miterlimit="10" stroke-linecap="round" stroke-linejoin="round"/>
<path d="M198.7 335.971C198.7 335.971 199 336.071 199.3 336.271C199.6 336.471 200 336.471 200 336.471" stroke="black" stroke-width="0.75" stroke-miterlimit="10" stroke-linecap="round" stroke-linejoin="round"/>
<path d="M201.6 334.571C201.6 334.571 202.9 335.671 201.6 336.271" stroke="black" stroke-width="0.5" stroke-miterlimit="10" stroke-linecap="round" stroke-linejoin="round"/>
<path d="M201.4 335.971C201.4 335.971 201.1 336.071 200.8 336.271C200.5 336.471 200.1 336.471 200.1 336.471" stroke="black" stroke-width="0.75" stroke-miterlimit="10" stroke-linecap="round" stroke-linejoin="round"/>
<path d="M198 338.771C198 338.771 199.4 339.171 202 338.771" stroke="black" stroke-width="0.75" stroke-miterlimit="10" stroke-linecap="round" stroke-linejoin="round"/>
<path d="M194.8 331.671C194.8 331.671 196.6 331.071 197.9 331.671" stroke="black" stroke-width="0.75" stroke-miterlimit="10" stroke-linecap="round" stroke-linejoin="round"/>
<path d="M197.2 331.671C197.2 331.871 197 332.071 196.8 332.071C196.6 332.071 196.4 331.871 196.4 331.671C196.4 331.471 196.6 331.471 196.8 331.471C197 331.471 197.2 331.471 197.2 331.671Z" fill="black" stroke="black" stroke-width="0.25" stroke-miterlimit="10" stroke-linecap="round" stroke-linejoin="round"/>
<path d="M197.6 331.171C197.6 331.171 196.5 330.371 195.1 330.971" stroke="black" stroke-width="0.5" stroke-miterlimit="10" stroke-linecap="round" stroke-linejoin="round"/>
<path d="M197.6 332.671C197.6 332.671 197.1 333.571 196 333.471" stroke="black" stroke-width="0.5" stroke-miterlimit="10" stroke-linecap="round" stroke-linejoin="round"/>
<path d="M191.3 329.171C191.3 329.171 191.3 330.771 191.4 331.871" stroke="black" stroke-width="0.75" stroke-miterlimit="10" stroke-linecap="round" stroke-linejoin="round"/>
<path d="M191.3 331.471C191.3 331.471 190.4 329.771 189.9 330.471" stroke="black" stroke-width="0.5" stroke-miterlimit="10" stroke-linecap="round" stroke-linejoin="round"/>
<path d="M190.8 331.771C190.8 331.771 190.3 333.071 191.4 334.071" stroke="black" stroke-width="0.5" stroke-miterlimit="10" stroke-linecap="round" stroke-linejoin="round"/>
<path d="M207.7 336.371L208 334.371" stroke="black" stroke-width="0.75" stroke-miterlimit="10" stroke-linecap="round" stroke-linejoin="round"/>
<path d="M208.2 332.071C208.2 332.071 209.2 330.071 210 330.771" stroke="black" stroke-width="0.5" stroke-miterlimit="10" stroke-linecap="round" stroke-linejoin="round"/>
<path d="M209.3 331.771C209.3 331.771 209.8 333.071 208.7 334.071" stroke="black" stroke-width="0.5" stroke-miterlimit="10" stroke-linecap="round" stroke-linejoin="round"/>
<path d="M197 329.171L195.5 328.871L194.1 329.571C194.1 329.571 195.5 329.071 197 329.171Z" stroke="black" stroke-width="0.75" stroke-miterlimit="10" stroke-linecap="round" stroke-linejoin="round"/>
<path d="M205.2 331.671C205.2 331.671 203.4 331.071 202.1 331.671" stroke="black" stroke-width="0.75" stroke-miterlimit="10" stroke-linecap="round" stroke-linejoin="round"/>
<path d="M202.9 331.671C202.9 331.871 203.1 332.071 203.3 332.071C203.5 332.071 203.7 331.871 203.7 331.671C203.7 331.471 203.5 331.471 203.3 331.471C203.1 331.471 202.9 331.471 202.9 331.671Z" fill="black" stroke="black" stroke-width="0.25" stroke-miterlimit="10" stroke-linecap="round" stroke-linejoin="round"/>
<path d="M202.5 331.171C202.5 331.171 203.6 330.371 205 330.971" stroke="black" stroke-width="0.5" stroke-miterlimit="10" stroke-linecap="round" stroke-linejoin="round"/>
<path d="M202.5 332.671C202.5 332.671 203 333.571 204.1 333.471" stroke="black" stroke-width="0.5" stroke-miterlimit="10" stroke-linecap="round" stroke-linejoin="round"/>
<path d="M203.1 329.171L204.6 328.971L206 329.671C206 329.571 204.6 329.071 203.1 329.171Z" stroke="black" stroke-width="0.75" stroke-miterlimit="10" stroke-linecap="round" stroke-linejoin="round"/>
<path d="M199.3 330.671L198.9 333.071" stroke="black" stroke-width="0.5" stroke-miterlimit="10" stroke-linecap="round" stroke-linejoin="round"/>
<path d="M208.2 331.571V332.371" stroke="black" stroke-width="0.75" stroke-miterlimit="10" stroke-linecap="round" stroke-linejoin="round"/>
<path d="M191.1 330.371C191.1 330.371 191.6 326.771 192.5 325.871C192.5 325.871 195.8 326.671 198.8 324.771C201.8 322.771 202.3 322.371 204.1 322.371C204.1 322.371 205.9 327.071 207.9 328.571L208.1 331.671C208.1 331.671 208.2 330.971 208.6 330.571C211.2 321.871 205.1 321.371 205.1 321.371C205.1 321.371 205.8 318.771 199.4 319.471C192.2 320.171 189.7 323.071 189.9 325.871C190 327.971 190.7 329.871 190.7 329.871C191 329.971 191.1 330.371 191.1 330.371Z" fill="black" stroke="black" stroke-width="0.75" stroke-miterlimit="10" stroke-linecap="round" stroke-linejoin="round"/>
<path d="M194.1 331.871H193.2" stroke="black" stroke-width="0.5" stroke-miterlimit="10" stroke-linecap="round" stroke-linejoin="round"/>
<path d="M206 331.871H206.8" stroke="black" stroke-width="0.5" stroke-miterlimit="10" stroke-linecap="round" stroke-linejoin="round"/>
</g>
<g clip-path="url(#clip8)">
<path d="M218.3 330.871C218.3 330.871 218.2 332.371 218.3 332.871" stroke="black" stroke-width="0.75" stroke-miterlimit="10" stroke-linecap="round" stroke-linejoin="round"/>
<path d="M218.3 332.471C218.3 332.471 217.8 330.671 217 330.971" stroke="black" stroke-width="0.5" stroke-miterlimit="10" stroke-linecap="round" stroke-linejoin="round"/>
<path d="M217.6 332.17C217.6 332.17 217.5 333.67 218.3 334.37" stroke="black" stroke-width="0.5" stroke-miterlimit="10" stroke-linecap="round" stroke-linejoin="round"/>
<path d="M218.3 336.871V335.971" stroke="black" stroke-width="0.75" stroke-miterlimit="10" stroke-linecap="round" stroke-linejoin="round"/>
<path d="M225.3 334.271C225.466 334.271 225.6 334.181 225.6 334.071C225.6 333.96 225.466 333.871 225.3 333.871C225.134 333.871 225 333.96 225 334.071C225 334.181 225.134 334.271 225.3 334.271Z" fill="black" stroke="black" stroke-width="0.75" stroke-miterlimit="10" stroke-linecap="round" stroke-linejoin="round"/>
<path d="M227.1 334.271C227.266 334.271 227.4 334.181 227.4 334.071C227.4 333.96 227.266 333.871 227.1 333.871C226.934 333.871 226.8 333.96 226.8 334.071C226.8 334.181 226.934 334.271 227.1 334.271Z" fill="black" stroke="black" stroke-width="0.75" stroke-miterlimit="10" stroke-linecap="round" stroke-linejoin="round"/>
<path d="M225.5 331.871C224.9 331.971 224.8 332.771 224.7 333.071C224.7 333.071 224 333.371 224.1 334.271C224.1 334.871 224.9 334.871 224.9 334.871" stroke="black" stroke-width="0.75" stroke-miterlimit="10" stroke-linecap="round" stroke-linejoin="round"/>
<path d="M227 331.871C227.6 331.971 227.6 332.771 227.8 333.071C227.8 333.071 228.5 333.371 228.4 334.271C228.4 334.871 227.6 334.871 227.6 334.871" stroke="black" stroke-width="0.75" stroke-miterlimit="10" stroke-linecap="round" stroke-linejoin="round"/>
<path d="M228.6 338.471C228.6 338.471 226.2 337.771 223.8 338.471" stroke="black" stroke-width="0.75" stroke-miterlimit="10" stroke-linecap="round" stroke-linejoin="round"/>
<path d="M217.9 330.271C217.9 330.271 217.6 324.371 219.3 321.671C219.3 321.671 219.7 319.471 224.5 318.971C229.3 318.471 230.9 320.471 230.8 320.871C230.8 320.871 232.5 321.371 233.5 324.871C234.3 327.871 234.3 330.571 234.3 330.571" stroke="black" stroke-width="0.75" stroke-miterlimit="10" stroke-linecap="round" stroke-linejoin="round"/>
<path d="M225.2 321.771C225.2 321.771 224.6 318.571 221 320.071" stroke="black" stroke-width="0.5" stroke-miterlimit="10" stroke-linecap="round" stroke-linejoin="round"/>
<path d="M232.8 326.571C232.8 326.571 234.2 328.271 234.1 330.871C234.1 330.871 234.6 329.871 235.3 330.071C236 330.271 236 331.871 235.6 332.971C235.2 334.071 234.9 335.271 234.8 335.871C234.7 336.471 234.6 336.871 234 336.871C234 336.871 234.3 340.371 230.8 341.971C227.6 343.371 227.6 343.471 226.2 343.471C224.8 343.471 224.7 343.471 221.6 341.971C218 340.271 218.4 336.871 218.4 336.871C217.8 336.971 217.7 336.571 217.6 335.871C217.5 335.171 217.3 334.071 216.8 332.971C216.3 331.871 216.3 330.271 217.1 330.071C217.9 329.871 218.3 330.871 218.3 330.871C218.4 329.271 219.4 326.871 219.4 326.871" stroke="black" stroke-width="0.75" stroke-miterlimit="10" stroke-linecap="round" stroke-linejoin="round"/>
<path d="M234.1 330.871C234.1 330.871 234.2 332.371 234.1 332.871" stroke="black" stroke-width="0.75" stroke-miterlimit="10" stroke-linecap="round" stroke-linejoin="round"/>
<path d="M234.2 332.471C234.2 332.471 234.7 330.671 235.5 330.971" stroke="black" stroke-width="0.5" stroke-miterlimit="10" stroke-linecap="round" stroke-linejoin="round"/>
<path d="M234.8 332.17C234.8 332.17 234.9 333.67 234.1 334.37" stroke="black" stroke-width="0.5" stroke-miterlimit="10" stroke-linecap="round" stroke-linejoin="round"/>
<path d="M234.1 336.871V335.971" stroke="black" stroke-width="0.75" stroke-miterlimit="10" stroke-linecap="round" stroke-linejoin="round"/>
<path d="M224.1 321.471C223.6 320.671 221.8 319.171 219.9 320.771" stroke="black" stroke-width="0.5" stroke-miterlimit="10" stroke-linecap="round" stroke-linejoin="round"/>
<path d="M222.2 321.571C222.2 321.571 220 320.071 218.6 323.471" stroke="black" stroke-width="0.5" stroke-miterlimit="10" stroke-linecap="round" stroke-linejoin="round"/>
<path d="M219.7 322.67C219.7 322.67 219 322.87 218.2 325.07" stroke="black" stroke-width="0.5" stroke-miterlimit="10" stroke-linecap="round" stroke-linejoin="round"/>
<path d="M219.4 323.971C219.4 323.971 218.6 323.871 218 326.871" stroke="black" stroke-width="0.5" stroke-miterlimit="10" stroke-linecap="round" stroke-linejoin="round"/>
<path d="M219.1 325.071C219.1 325.071 218.1 326.171 217.9 328.371" stroke="black" stroke-width="0.5" stroke-miterlimit="10" stroke-linecap="round" stroke-linejoin="round"/>
<path d="M219.1 326.371C219.1 326.371 218 328.071 217.9 329.871" stroke="black" stroke-width="0.5" stroke-miterlimit="10" stroke-linecap="round" stroke-linejoin="round"/>
<path d="M226.2 321.771C226.2 321.771 225.9 319.371 223.4 319.071" stroke="black" stroke-width="0.5" stroke-miterlimit="10" stroke-linecap="round" stroke-linejoin="round"/>
<path d="M230.9 322.071C230.9 322.071 232.4 322.071 233.5 324.571" stroke="black" stroke-width="0.5" stroke-miterlimit="10" stroke-linecap="round" stroke-linejoin="round"/>
<path d="M232 323.571C232 323.571 233.2 324.071 233.8 326.071" stroke="black" stroke-width="0.5" stroke-miterlimit="10" stroke-linecap="round" stroke-linejoin="round"/>
<path d="M232.8 325.17C232.8 325.17 233.6 325.77 234.2 327.97" stroke="black" stroke-width="0.5" stroke-miterlimit="10" stroke-linecap="round" stroke-linejoin="round"/>
<path d="M229.8 321.071C229.8 321.071 230.1 319.571 227.7 318.971" stroke="black" stroke-width="0.5" stroke-miterlimit="10" stroke-linecap="round" stroke-linejoin="round"/>
<path d="M228.6 321.071C228.6 321.071 228.6 319.271 225.6 318.871" stroke="black" stroke-width="0.5" stroke-miterlimit="10" stroke-linecap="round" stroke-linejoin="round"/>
<path d="M227.4 321.671C227.4 321.671 227.2 319.671 224.5 318.971" stroke="black" stroke-width="0.5" stroke-miterlimit="10" stroke-linecap="round" stroke-linejoin="round"/>
<path d="M220.8 330.271C220.8 330.271 222.3 329.171 224.5 330.071" stroke="black" stroke-width="0.75" stroke-miterlimit="10" stroke-linecap="round" stroke-linejoin="round"/>
<path d="M223 329.871C223 329.971 222.9 330.171 222.7 330.171C222.5 330.171 222.4 330.071 222.4 329.871" fill="black"/>
<path d="M223 329.871C223 329.971 222.9 330.171 222.7 330.171C222.5 330.171 222.4 330.071 222.4 329.871" stroke="black" stroke-width="0.75" stroke-miterlimit="10" stroke-linecap="round" stroke-linejoin="round"/>
<path d="M223.8 328.27C223.8 328.27 222.5 326.57 221 327.87" stroke="black" stroke-width="0.5" stroke-miterlimit="10" stroke-linecap="round" stroke-linejoin="round"/>
<path d="M222.3 327.87C222.3 327.87 221.6 327.57 220.4 328.67" stroke="black" stroke-width="0.5" stroke-miterlimit="10" stroke-linecap="round" stroke-linejoin="round"/>
<path d="M228.6 328.27C228.6 328.27 229.9 326.57 231.4 327.87" stroke="black" stroke-width="0.5" stroke-miterlimit="10" stroke-linecap="round" stroke-linejoin="round"/>
<path d="M230.2 327.87C230.2 327.87 230.9 327.57 232.1 328.67" stroke="black" stroke-width="0.5" stroke-miterlimit="10" stroke-linecap="round" stroke-linejoin="round"/>
<path d="M224.3 330.871C224.3 330.871 223.5 332.671 221.6 331.771" stroke="black" stroke-width="0.5" stroke-miterlimit="10" stroke-linecap="round" stroke-linejoin="round"/>
<path d="M221.7 330.471H223.5" stroke="black" stroke-width="0.5" stroke-miterlimit="10" stroke-linecap="round" stroke-linejoin="round"/>
<path d="M231.7 330.271C231.7 330.271 230.2 329.171 228 330.071" stroke="black" stroke-width="0.75" stroke-miterlimit="10" stroke-linecap="round" stroke-linejoin="round"/>
<path d="M229.4 329.871C229.4 329.971 229.5 330.171 229.7 330.171C229.9 330.171 230 330.071 230 329.871" fill="black"/>
<path d="M229.4 329.871C229.4 329.971 229.5 330.171 229.7 330.171C229.9 330.171 230 330.071 230 329.871" stroke="black" stroke-width="0.75" stroke-miterlimit="10" stroke-linecap="round" stroke-linejoin="round"/>
<path d="M228.1 330.871C228.1 330.871 229.1 332.671 231.2 331.471" stroke="black" stroke-width="0.5" stroke-miterlimit="10" stroke-linecap="round" stroke-linejoin="round"/>
<path d="M230.7 330.471H229" stroke="black" stroke-width="0.5" stroke-miterlimit="10" stroke-linecap="round" stroke-linejoin="round"/>
<path d="M224.9 338.971C224.9 338.971 226 339.671 227.5 338.971" stroke="black" stroke-width="0.5" stroke-miterlimit="10" stroke-linecap="round" stroke-linejoin="round"/>
<path d="M223.1 336.27C223.3 335.17 224.2 333.67 224.2 333.67" stroke="black" stroke-width="0.5" stroke-miterlimit="10" stroke-linecap="round" stroke-linejoin="round"/>
<path d="M229.3 336.27C229.1 335.17 228.2 333.67 228.2 333.67" stroke="black" stroke-width="0.5" stroke-miterlimit="10" stroke-linecap="round" stroke-linejoin="round"/>
<path d="M224.2 329.271C224.2 329.271 224.6 329.671 224.5 330.071" stroke="black" stroke-width="0.5" stroke-miterlimit="10" stroke-linecap="round" stroke-linejoin="round"/>
<path d="M228.4 329.271C228.4 329.271 228 329.671 228 330.071" stroke="black" stroke-width="0.5" stroke-miterlimit="10" stroke-linecap="round" stroke-linejoin="round"/>
</g>
<g clip-path="url(#clip9)">
<path d="M244.4 331.971V334.271" stroke="black" stroke-width="0.75" stroke-miterlimit="10" stroke-linecap="round"/>
<path d="M244.4 337.571V336.471" stroke="black" stroke-width="0.75" stroke-miterlimit="10" stroke-linecap="round"/>
<path d="M244.4 333.57C244.4 333.57 243.5 331.17 242.4 331.97" stroke="black" stroke-width="0.5" stroke-miterlimit="10" stroke-linecap="round"/>
<path d="M243.4 333.071C243.4 333.071 242.8 334.571 244 335.371" stroke="black" stroke-width="0.5" stroke-miterlimit="10" stroke-linecap="round"/>
<path d="M250.4 336.271C250.4 336.271 250.9 336.071 251.3 336.271C251.8 336.471 252.2 336.471 252.2 336.471" stroke="black" stroke-width="0.75" stroke-miterlimit="10" stroke-linecap="round"/>
<path d="M253.9 336.271C253.9 336.271 253.4 336.071 253 336.271C252.6 336.471 252.1 336.471 252.1 336.471" stroke="black" stroke-width="0.75" stroke-miterlimit="10" stroke-linecap="round"/>
<path d="M249.8 336.471C249.8 336.471 248.6 335.571 250.4 334.371" stroke="black" stroke-width="0.5" stroke-miterlimit="10" stroke-linecap="round"/>
<path d="M249.9 334.771C249.9 334.771 247.6 337.171 247.6 338.171" stroke="black" stroke-width="0.5" stroke-miterlimit="10" stroke-linecap="round"/>
<path d="M247.3 331.771C247.3 331.771 249 329.871 250.2 331.371" stroke="black" stroke-width="0.75" stroke-miterlimit="10" stroke-linecap="round"/>
<path d="M249.3 331.171C249.3 331.371 249.1 331.571 248.9 331.571C248.7 331.571 248.5 331.371 248.5 331.171C248.5 330.971 248.7 330.871 248.9 330.871C249.1 330.871 249.3 330.971 249.3 331.171Z" fill="black" stroke="black" stroke-width="0.75" stroke-miterlimit="10" stroke-linecap="round"/>
<path d="M250.2 329.671L249.9 329.271C249.9 329.271 248.1 329.271 246.8 329.971" stroke="black" stroke-width="0.75" stroke-miterlimit="10" stroke-linecap="round"/>
<path d="M248.9 329.97C248.9 329.97 246.5 329.97 246 330.77C245.5 331.57 245.9 333.37 247.6 333.57C249.2 333.77 250.8 333.57 251.2 332.37C251.5 331.27 251.4 329.87 248.9 329.97Z" stroke="black" stroke-width="0.5" stroke-miterlimit="10" stroke-linecap="round"/>
<path d="M255.3 329.97C255.3 329.97 257.7 329.97 258.2 330.77C258.7 331.57 258.3 333.37 256.6 333.57C255 333.77 253.4 333.57 253 332.37C252.7 331.27 252.9 329.87 255.3 329.97Z" stroke="black" stroke-width="0.5" stroke-miterlimit="10" stroke-linecap="round"/>
<path d="M249.9 338.471C249.9 338.471 252 338.671 254.3 338.471" stroke="black" stroke-width="0.75" stroke-miterlimit="10" stroke-linecap="round"/>
<path d="M254.1 338.17C254.1 338.17 254.8 338.67 254.9 339.57" stroke="black" stroke-width="0.5" stroke-miterlimit="10" stroke-linecap="round"/>
<path d="M250.1 338.17C250.1 338.17 249.4 338.67 249.3 339.57" stroke="black" stroke-width="0.5" stroke-miterlimit="10" stroke-linecap="round"/>
<path d="M245.9 331.17H244" stroke="black" stroke-width="0.75" stroke-miterlimit="10" stroke-linecap="round"/>
<path d="M259.9 331.971C259.9 331.971 260.5 330.971 261.6 331.171C262.7 331.371 262.8 333.171 262.1 334.571C261.4 335.971 261.2 336.271 261 336.871C260.8 337.471 260.3 337.771 259.9 337.671C259.9 337.671 259.9 340.071 258.2 340.971C256.5 341.971 254.6 343.571 252.2 343.571C249.8 343.571 247.9 341.971 246.2 340.971C244.5 339.971 244.5 337.671 244.5 337.671C244.1 337.771 243.6 337.471 243.4 336.871C243.2 336.271 243 336.071 242.3 334.571C241.6 333.071 241.7 331.371 242.8 331.171C243.9 330.971 244.5 331.971 244.5 331.971C244.5 331.971 245 326.571 245.9 325.171C246.8 323.771 247.5 323.871 248.5 324.271C249.5 324.671 252.2 323.271 253.3 322.671C254.4 322.071 256.3 322.471 257 323.771C257.7 325.071 259.4 324.871 259.4 324.871C259.4 324.871 258.6 325.971 258.9 328.271C259.2 330.571 259.9 331.971 259.9 331.971Z" stroke="black" stroke-width="0.75" stroke-miterlimit="10" stroke-linecap="round"/>
<path d="M259.9 331.971V334.271" stroke="black" stroke-width="0.75" stroke-miterlimit="10" stroke-linecap="round"/>
<path d="M259.9 337.571V336.471" stroke="black" stroke-width="0.75" stroke-miterlimit="10" stroke-linecap="round"/>
<path d="M259.9 333.57C259.9 333.57 260.8 331.17 261.9 331.97" stroke="black" stroke-width="0.5" stroke-miterlimit="10" stroke-linecap="round"/>
<path d="M260.9 333.071C260.9 333.071 261.5 334.571 260.3 335.371" stroke="black" stroke-width="0.5" stroke-miterlimit="10" stroke-linecap="round"/>
<path d="M254.4 336.471C254.4 336.471 255.6 335.571 253.8 334.371" stroke="black" stroke-width="0.5" stroke-miterlimit="10" stroke-linecap="round"/>
<path d="M254.4 334.771C254.4 334.771 256.7 337.171 256.7 338.171" stroke="black" stroke-width="0.5" stroke-miterlimit="10" stroke-linecap="round"/>
<path d="M257 331.771C257 331.771 255.3 329.871 254.1 331.371" stroke="black" stroke-width="0.75" stroke-miterlimit="10" stroke-linecap="round"/>
<path d="M255 331.171C255 331.371 255.2 331.571 255.4 331.571C255.6 331.571 255.8 331.371 255.8 331.171C255.8 330.971 255.6 330.871 255.4 330.871C255.2 330.871 255 330.971 255 331.171Z" fill="black" stroke="black" stroke-width="0.75" stroke-miterlimit="10" stroke-linecap="round"/>
<path d="M254.1 329.671L254.4 329.271C254.4 329.271 256.2 329.271 257.5 329.971" stroke="black" stroke-width="0.75" stroke-miterlimit="10" stroke-linecap="round"/>
<path d="M258.3 331.17H260.2" stroke="black" stroke-width="0.75" stroke-miterlimit="10" stroke-linecap="round"/>
<path d="M251.3 331.471C251.3 331.471 252.1 331.071 253 331.471" stroke="black" stroke-width="0.75" stroke-miterlimit="10" stroke-linecap="round"/>
<path d="M243.6 331.271C244.1 331.571 244.4 331.971 244.4 331.971C244.4 331.971 244.9 326.571 245.8 325.171C246.7 323.771 247.4 323.871 248.4 324.271C249.4 324.671 252.1 323.271 253.2 322.671C254.3 322.071 256.2 322.471 256.9 323.771C257.6 325.071 259.3 324.871 259.3 324.871C259.3 324.871 258.5 325.971 258.8 328.271C259.1 330.671 259.9 331.871 259.9 331.871C259.9 331.871 260.2 331.371 260.8 331.171C263.2 326.771 260.3 325.671 260.3 323.871C260.3 322.471 257.6 318.571 252 318.771C246.3 319.171 244.4 320.771 242.8 324.271C241.2 327.671 243.6 331.271 243.6 331.271Z" fill="black" stroke="black" stroke-width="0.75" stroke-miterlimit="10" stroke-linecap="round"/>
</g>
<g clip-path="url(#clip10)">
<path d="M270.5 334.07L271 335.57" stroke="black" stroke-width="0.75" stroke-miterlimit="10" stroke-linecap="round" stroke-linejoin="round"/>
<path d="M277.038 336.269C277.047 336.215 276.966 336.156 276.857 336.137C276.749 336.119 276.653 336.148 276.644 336.203C276.635 336.257 276.715 336.316 276.824 336.334C276.933 336.353 277.029 336.323 277.038 336.269Z" stroke="black" stroke-width="0.75" stroke-miterlimit="10" stroke-linecap="round" stroke-linejoin="round"/>
<path d="M276.8 336.17C276.8 336.17 277 336.17 277.3 336.37C277.4 336.47 277.7 336.57 277.9 336.57" stroke="black" stroke-width="0.75" stroke-miterlimit="10" stroke-linecap="round" stroke-linejoin="round"/>
<path d="M278.922 336.366C279.031 336.347 279.112 336.288 279.103 336.234C279.094 336.179 278.998 336.15 278.889 336.168C278.78 336.187 278.699 336.246 278.709 336.3C278.718 336.355 278.813 336.384 278.922 336.366Z" stroke="black" stroke-width="0.75" stroke-miterlimit="10" stroke-linecap="round" stroke-linejoin="round"/>
<path d="M278.9 336.17C278.9 336.17 278.7 336.17 278.4 336.37C278.3 336.47 278 336.57 277.8 336.57" stroke="black" stroke-width="0.75" stroke-miterlimit="10" stroke-linecap="round" stroke-linejoin="round"/>
<path d="M275.8 336.17C275.8 336.17 275.5 335.77 276.1 335.17" stroke="black" stroke-width="0.5" stroke-miterlimit="10" stroke-linecap="round" stroke-linejoin="round"/>
<path d="M275.4 338.871H280.2" stroke="black" stroke-width="0.5" stroke-miterlimit="10" stroke-linecap="round" stroke-linejoin="round"/>
<path d="M275.8 338.871C275.8 338.871 277.1 339.671 277.9 339.671C278.2 339.671 279.1 339.571 280 338.871" fill="black"/>
<path d="M275.8 338.871C275.8 338.871 277.1 339.671 277.9 339.671C278.2 339.671 279.1 339.571 280 338.871" stroke="black" stroke-width="0.5" stroke-miterlimit="10" stroke-linecap="round" stroke-linejoin="round"/>
<path d="M279.9 338.87C279.3 338.87 278.7 337.87 277.9 338.37C277.1 337.87 276.5 338.87 275.9 338.87" fill="black"/>
<path d="M279.9 338.87C279.3 338.87 278.7 337.87 277.9 338.37C277.1 337.87 276.5 338.87 275.9 338.87" stroke="black" stroke-width="0.5" stroke-miterlimit="10" stroke-linecap="round" stroke-linejoin="round"/>
<path d="M272.8 331.87C272.8 331.87 274.9 330.67 275.9 332.07" stroke="black" stroke-width="0.75" stroke-miterlimit="10" stroke-linecap="round" stroke-linejoin="round"/>
<path d="M274.7 332.271C274.921 332.271 275.1 332.092 275.1 331.871C275.1 331.65 274.921 331.471 274.7 331.471C274.479 331.471 274.3 331.65 274.3 331.871C274.3 332.092 274.479 332.271 274.7 332.271Z" fill="black" stroke="black" stroke-width="0.75" stroke-miterlimit="10" stroke-linecap="round" stroke-linejoin="round"/>
<path d="M282.8 331.87C282.8 331.87 280.7 330.67 279.7 332.07" stroke="black" stroke-width="0.75" stroke-miterlimit="10" stroke-linecap="round" stroke-linejoin="round"/>
<path d="M281 332.271C281.221 332.271 281.4 332.092 281.4 331.871C281.4 331.65 281.221 331.471 281 331.471C280.779 331.471 280.6 331.65 280.6 331.871C280.6 332.092 280.779 332.271 281 332.271Z" fill="black" stroke="black" stroke-width="0.75" stroke-miterlimit="10" stroke-linecap="round" stroke-linejoin="round"/>
<path d="M272.1 330.37C272.1 330.37 273.4 329.37 276.3 330.37L276 329.87C276 329.87 274 329.57 273.8 329.57C273.5 329.57 272.1 330.37 272.1 330.37Z" fill="black" stroke="black" stroke-width="0.75" stroke-miterlimit="10" stroke-linecap="round" stroke-linejoin="round"/>
<path d="M277.8 324.07C285.5 324.07 285.1 333.97 285.1 333.97C285.1 333.97 285.6 333.47 285.9 333.67C286.2 333.87 286 334.47 285.5 335.17C285 335.87 284.9 337.57 284 337.17C284 337.17 283.1 339.57 281.3 341.47C279.5 343.37 278.3 343.47 277.8 343.47C277.3 343.47 276.1 343.47 274.2 341.57C272.3 339.67 271.5 337.27 271.5 337.27C270.6 337.67 270.5 335.87 270 335.27C269.5 334.67 269.3 333.97 269.6 333.77C269.9 333.57 270.4 334.07 270.4 334.07C270.4 334.07 270.1 324.07 277.8 324.07Z" stroke="black" stroke-width="0.75" stroke-miterlimit="10" stroke-linecap="round" stroke-linejoin="round"/>
<path d="M285.2 334.07L284.7 335.57" stroke="black" stroke-width="0.75" stroke-miterlimit="10" stroke-linecap="round" stroke-linejoin="round"/>
<path d="M279.9 336.17C279.9 336.17 280.2 335.77 279.6 335.17" stroke="black" stroke-width="0.5" stroke-miterlimit="10" stroke-linecap="round" stroke-linejoin="round"/>
<path d="M283.6 330.37C283.6 330.37 282.3 329.37 279.4 330.37L279.7 329.87C279.7 329.87 281.7 329.57 281.9 329.57C282.1 329.57 283.6 330.37 283.6 330.37Z" fill="black" stroke="black" stroke-width="0.75" stroke-miterlimit="10" stroke-linecap="round" stroke-linejoin="round"/>
<path d="M270.6 334.47C270.7 331.77 271.8 324.07 277.8 324.07C284.5 324.07 285 332.27 285 334.27L285.9 333.57C286.3 333.07 287.1 330.37 286.1 325.77C285.1 320.87 280.2 320.37 280.2 320.37C275.5 316.97 270.5 319.67 269.2 323.57C266.7 331.27 270.5 334.37 270.6 334.47Z" fill="black" stroke="black" stroke-width="0.75" stroke-miterlimit="10" stroke-linecap="round" stroke-linejoin="round"/>
<path d="M272.1 328.97C277.6 317.47 279.7 323.87 279.7 323.87" stroke="white" stroke-width="0.5" stroke-miterlimit="10" stroke-linecap="round" stroke-linejoin="round"/>
<path d="M271 338.27C271.166 338.27 271.3 338.136 271.3 337.97C271.3 337.805 271.166 337.67 271 337.67C270.834 337.67 270.7 337.805 270.7 337.97C270.7 338.136 270.834 338.27 271 338.27Z" fill="black" stroke="black" stroke-width="0.75" stroke-miterlimit="10" stroke-linecap="round" stroke-linejoin="round"/>
<path d="M284.7 338.27C284.866 338.27 285 338.136 285 337.97C285 337.805 284.866 337.67 284.7 337.67C284.534 337.67 284.4 337.805 284.4 337.97C284.4 338.136 284.534 338.27 284.7 338.27Z" fill="black" stroke="black" stroke-width="0.75" stroke-miterlimit="10" stroke-linecap="round" stroke-linejoin="round"/>
<path d="M270 334.371C270 334.371 270.6 334.571 270.9 335.171" stroke="black" stroke-width="0.5" stroke-miterlimit="10" stroke-linecap="round" stroke-linejoin="round"/>
<path d="M285.7 334.371C285.7 334.371 285.1 334.571 284.8 335.171" stroke="black" stroke-width="0.5" stroke-miterlimit="10" stroke-linecap="round" stroke-linejoin="round"/>
</g>
</g>
</g>
<g clip-path="url(#clip11)">
<path d="M4.3673 305.653C3.32197 305.653 2.5333 305.419 2.0013 304.953C1.4693 304.486 1.2033 303.805 1.2033 302.909V302.349C1.2033 301.966 1.25464 301.653 1.3573 301.411C1.45997 301.159 1.58597 300.93 1.7353 300.725C1.88464 300.519 2.00597 300.337 2.0993 300.179C2.20197 300.011 2.2533 299.838 2.2533 299.661C2.2533 299.493 2.2113 299.376 2.1273 299.311C2.0433 299.236 1.94064 299.199 1.8193 299.199C1.64197 299.199 1.43664 299.255 1.2033 299.367L0.867305 298.051C1.12864 297.911 1.40864 297.817 1.7073 297.771C2.0153 297.715 2.28597 297.687 2.5193 297.687C3.1353 297.687 3.5693 297.836 3.8213 298.135C4.08264 298.424 4.2133 298.816 4.2133 299.311C4.2133 299.6 4.1713 299.857 4.0873 300.081C4.0033 300.295 3.89597 300.519 3.7653 300.753C3.63464 300.967 3.52264 301.168 3.4293 301.355C3.33597 301.541 3.2893 301.812 3.2893 302.167V302.727C3.2893 303.184 3.38264 303.515 3.5693 303.721C3.7653 303.917 4.03597 304.015 4.3813 304.015C5.09997 304.015 5.45931 303.609 5.45931 302.797V297.799H7.5453V302.853C7.5453 303.777 7.27464 304.477 6.7333 304.953C6.19197 305.419 5.4033 305.653 4.3673 305.653ZM5.49551 296.735C5.05684 296.735 4.71151 296.669 4.45951 296.539C4.20751 296.408 4.03017 296.245 3.92751 296.049C3.81551 295.843 3.75951 295.629 3.75951 295.405C3.75951 295.05 3.85284 294.709 4.03951 294.383L5.56551 294.579C5.51884 294.719 5.49551 294.849 5.49551 294.971C5.49551 295.101 5.53751 295.204 5.62151 295.279C5.69617 295.344 5.82684 295.377 6.01351 295.377H9.02351V296.735H5.49551ZM5.07157 293.557V292.983C5.1649 292.955 5.28157 292.913 5.42157 292.857C5.55224 292.801 5.6689 292.731 5.77157 292.647C5.87424 292.553 5.92557 292.432 5.92557 292.283C5.92557 292.18 5.89757 292.101 5.84157 292.045C5.77624 291.979 5.6969 291.947 5.60357 291.947C5.4449 291.947 5.30957 291.993 5.19757 292.087L4.94557 291.275C5.11357 291.144 5.32357 291.06 5.57557 291.023C5.81824 290.976 6.02824 290.953 6.20557 290.953C6.56024 290.953 6.84957 291.027 7.07357 291.177C7.28824 291.317 7.39557 291.55 7.39557 291.877C7.39557 291.961 7.38624 292.049 7.36757 292.143C7.3489 292.227 7.31624 292.306 7.26957 292.381H8.92157V293.557H5.07157ZM11.5465 305.653C11.0705 305.653 10.6225 305.597 10.2025 305.485C9.78246 305.382 9.39046 305.233 9.02646 305.037L9.58646 303.511C9.79179 303.632 10.0391 303.739 10.3285 303.833C10.6178 303.926 10.9025 303.973 11.1825 303.973C11.7051 303.973 12.1205 303.777 12.4285 303.385C12.7365 302.983 12.8905 302.386 12.8905 301.593C12.8905 300.855 12.7365 300.291 12.4285 299.899C12.1205 299.497 11.6398 299.297 10.9865 299.297C10.6785 299.297 10.3611 299.343 10.0345 299.437C9.70779 299.521 9.43713 299.628 9.22246 299.759V298.037C9.51179 297.906 9.83846 297.803 10.2025 297.729C10.5665 297.654 10.9538 297.617 11.3645 297.617C12.6525 297.617 13.5858 297.971 14.1645 298.681C14.7431 299.381 15.0325 300.351 15.0325 301.593C15.0325 302.927 14.7291 303.94 14.1225 304.631C13.5158 305.312 12.6571 305.653 11.5465 305.653ZM16.7919 305.471V297.799H18.3319L18.6119 299.003H18.7239C18.8825 298.62 19.1579 298.303 19.5499 298.051C19.9419 297.789 20.4505 297.659 21.0759 297.659C22.8585 297.659 23.7499 298.615 23.7499 300.529V305.471H21.6499V300.949C21.6499 300.426 21.5425 300.053 21.3279 299.829C21.1225 299.595 20.8192 299.479 20.4179 299.479C19.9325 299.479 19.5545 299.675 19.2839 300.067C19.0225 300.459 18.8919 301.037 18.8919 301.803V305.471H16.7919ZM25.8296 305.471V297.799H27.9016V300.669H27.9576L30.3376 297.799H32.6476V297.869L30.6176 300.123C31.2803 300.225 31.7796 300.505 32.1156 300.963C32.4516 301.42 32.6196 301.971 32.6196 302.615V305.471H30.5196V302.937C30.5196 302.517 30.417 302.199 30.2116 301.985C30.0063 301.761 29.7076 301.621 29.3156 301.565L27.9016 303.133V305.471H25.8296ZM36.4426 305.471V300.403C36.4426 300.011 36.3493 299.726 36.1626 299.549C35.9853 299.371 35.6913 299.283 35.2806 299.283C34.9726 299.283 34.688 299.325 34.4266 299.409C34.1746 299.493 33.9366 299.595 33.7126 299.717V298.037C33.918 297.943 34.2073 297.85 34.5806 297.757C34.954 297.663 35.3926 297.617 35.8966 297.617C36.41 297.617 36.8626 297.691 37.2546 297.841C37.656 297.99 37.9686 298.242 38.1926 298.597C38.426 298.942 38.5426 299.418 38.5426 300.025V305.471H36.4426ZM43.1286 305.653C42.5779 305.653 42.0226 305.592 41.4626 305.471C40.9119 305.349 40.4219 305.177 39.9926 304.953L40.5806 303.287C40.8606 303.436 41.2199 303.595 41.6586 303.763C42.0973 303.921 42.5593 304.001 43.0446 304.001C43.8006 304.001 44.1786 303.781 44.1786 303.343C44.1786 303.1 44.0339 302.913 43.7446 302.783C43.4646 302.643 43.0726 302.484 42.5686 302.307C42.0739 302.139 41.6493 301.952 41.2946 301.747C40.9399 301.541 40.6646 301.289 40.4686 300.991C40.2819 300.692 40.1886 300.314 40.1886 299.857C40.1886 299.091 40.4733 298.527 41.0426 298.163C41.6213 297.799 42.3913 297.617 43.3526 297.617C43.8753 297.617 44.3466 297.663 44.7666 297.757C45.1866 297.841 45.5133 297.943 45.7466 298.065V299.717C45.5039 299.605 45.1586 299.497 44.7106 299.395C44.2719 299.283 43.8519 299.227 43.4506 299.227C42.6759 299.227 42.2886 299.423 42.2886 299.815C42.2886 300.039 42.4379 300.216 42.7366 300.347C43.0446 300.468 43.4739 300.622 44.0246 300.809C44.7526 301.061 45.3079 301.364 45.6906 301.719C46.0826 302.073 46.2786 302.577 46.2786 303.231C46.2786 303.651 46.1806 304.047 45.9846 304.421C45.7979 304.785 45.4759 305.083 45.0186 305.317C44.5613 305.541 43.9313 305.653 43.1286 305.653Z" fill="black"/>
<g clip-path="url(#clip12)">
<g clip-path="url(#clip13)">
<path d="M10.9 342.471C10.9 342.471 8.79996 342.671 5.99996 340.971C2.99996 339.271 3.39996 336.471 3.39996 336.471C2.29996 336.671 1.99996 335.071 1.39996 333.671C0.699963 332.271 -0.300037 329.371 1.19996 329.271C2.69996 329.171 3.49996 330.671 3.49996 330.671C3.49996 330.671 3.89996 327.471 5.29996 325.971" stroke="black" stroke-width="0.75" stroke-miterlimit="10" stroke-linecap="round" stroke-linejoin="round"/>
<path d="M3.39998 330.67C3.39998 330.67 3.19998 332.27 3.09998 332.87" stroke="black" stroke-width="0.75" stroke-miterlimit="10" stroke-linecap="round" stroke-linejoin="round"/>
<path d="M3.29995 331.771C3.29995 331.771 2.19995 329.571 1.19995 330.071" stroke="black" stroke-width="0.5" stroke-miterlimit="10" stroke-linecap="round" stroke-linejoin="round"/>
<path d="M2.49999 331.471C2.49999 331.471 1.69999 333.271 2.99999 333.771" stroke="black" stroke-width="0.5" stroke-miterlimit="10" stroke-linecap="round" stroke-linejoin="round"/>
<path d="M10.8999 342.47C10.8999 342.47 12.9999 342.57 15.7999 340.97C18.6999 339.27 18.2999 336.47 18.2999 336.47C19.3999 336.67 19.6999 335.07 20.2999 333.67C20.9999 332.27 21.9999 329.37 20.4999 329.27C18.9999 329.17 18.1999 330.67 18.1999 330.67C18.1999 330.67 18.7999 324.57 16.9999 322.67" stroke="black" stroke-width="0.75" stroke-miterlimit="10" stroke-linecap="round" stroke-linejoin="round"/>
<path d="M18.2999 330.67C18.2999 330.67 18.4999 332.27 18.5999 332.87" stroke="black" stroke-width="0.75" stroke-miterlimit="10" stroke-linecap="round" stroke-linejoin="round"/>
<path d="M18.5 331.771C18.5 331.771 19.6 329.571 20.6 330.071" stroke="black" stroke-width="0.5" stroke-miterlimit="10" stroke-linecap="round" stroke-linejoin="round"/>
<path d="M19.2999 331.471C19.2999 331.471 20.0999 333.271 18.7999 333.771" stroke="black" stroke-width="0.5" stroke-miterlimit="10" stroke-linecap="round" stroke-linejoin="round"/>
<path d="M5.3999 330.171C5.3999 330.171 8.4999 328.471 9.4999 330.171" stroke="black" stroke-width="0.75" stroke-miterlimit="10" stroke-linecap="round" stroke-linejoin="round"/>
<path d="M9.49995 328.071L6.99995 327.771L5.69995 328.371" stroke="black" stroke-width="0.75" stroke-miterlimit="10" stroke-linecap="round" stroke-linejoin="round"/>
<path d="M8.09993 329.771C8.09993 329.971 7.89993 330.171 7.69993 330.171C7.49993 330.171 7.29993 329.971 7.29993 329.771C7.29993 329.571 7.59993 329.471 7.79993 329.471C8.09993 329.471 8.09993 329.471 8.09993 329.771Z" fill="black" stroke="black" stroke-width="0.75" stroke-miterlimit="10" stroke-linecap="round" stroke-linejoin="round"/>
<path d="M10.0999 334.87C10.2104 334.87 10.2999 334.826 10.2999 334.77C10.2999 334.715 10.2104 334.67 10.0999 334.67C9.98945 334.67 9.8999 334.715 9.8999 334.77C9.8999 334.826 9.98945 334.87 10.0999 334.87Z" fill="black" stroke="black" stroke-width="0.75" stroke-miterlimit="10" stroke-linecap="round" stroke-linejoin="round"/>
<path d="M11.5999 334.87C11.7104 334.87 11.7999 334.826 11.7999 334.77C11.7999 334.715 11.7104 334.67 11.5999 334.67C11.4894 334.67 11.3999 334.715 11.3999 334.77C11.3999 334.826 11.4894 334.87 11.5999 334.87Z" fill="black" stroke="black" stroke-width="0.75" stroke-miterlimit="10" stroke-linecap="round" stroke-linejoin="round"/>
<path d="M9.2 330.471C9.2 330.471 7.7 330.871 7 330.671Z" fill="black"/>
<path d="M9.2 330.471C9.2 330.471 7.7 330.871 7 330.671" stroke="black" stroke-width="0.5" stroke-miterlimit="10" stroke-linecap="round" stroke-linejoin="round"/>
<path d="M9.2999 330.771C9.2999 330.771 8.1999 332.671 6.3999 331.571" stroke="black" stroke-width="0.5" stroke-miterlimit="10" stroke-linecap="round" stroke-linejoin="round"/>
<path d="M16.3999 330.171C16.3999 330.171 13.2999 328.471 12.2999 330.171" stroke="black" stroke-width="0.75" stroke-miterlimit="10" stroke-linecap="round" stroke-linejoin="round"/>
<path d="M12.2999 328.071L14.7999 327.771L16.0999 328.371" stroke="black" stroke-width="0.75" stroke-miterlimit="10" stroke-linecap="round" stroke-linejoin="round"/>
<path d="M13.6 329.771C13.6 329.971 13.8 330.171 14 330.171C14.2 330.171 14.4 329.971 14.4 329.771C14.4 329.571 14.2 329.471 13.9 329.471C13.6 329.471 13.6 329.471 13.6 329.771Z" fill="black" stroke="black" stroke-width="0.75" stroke-miterlimit="10" stroke-linecap="round" stroke-linejoin="round"/>
<path d="M12.6 330.471C12.6 330.471 14.1 330.871 14.8 330.671Z" fill="black"/>
<path d="M12.6 330.471C12.6 330.471 14.1 330.871 14.8 330.671" stroke="black" stroke-width="0.5" stroke-miterlimit="10" stroke-linecap="round" stroke-linejoin="round"/>
<path d="M12.3999 330.771C12.3999 330.771 13.4999 332.671 15.2999 331.571" stroke="black" stroke-width="0.5" stroke-miterlimit="10" stroke-linecap="round" stroke-linejoin="round"/>
<path d="M9.39999 334.771C9.39999 334.771 8.59999 334.571 9.39999 333.471" stroke="black" stroke-width="0.5" stroke-miterlimit="10" stroke-linecap="round" stroke-linejoin="round"/>
<path d="M10.2999 328.971C10.2999 328.971 10.0999 331.171 9.79993 332.071" stroke="black" stroke-width="0.5" stroke-miterlimit="10" stroke-linecap="round" stroke-linejoin="round"/>
<path d="M8.19995 337.471C8.19995 337.471 9.49995 337.371 13.5 337.471" stroke="black" stroke-width="0.75" stroke-miterlimit="10" stroke-linecap="round" stroke-linejoin="round"/>
<path d="M7.59998 337.971L8.29998 337.271" stroke="black" stroke-width="0.5" stroke-miterlimit="10" stroke-linecap="round" stroke-linejoin="round"/>
<path d="M14.1 337.971L13.5 337.271" stroke="black" stroke-width="0.5" stroke-miterlimit="10" stroke-linecap="round" stroke-linejoin="round"/>
<path d="M2.19994 329.471C2.19994 329.471 0.999944 327.671 2.59994 322.971C3.79994 319.371 6.69994 319.271 6.69994 319.271" stroke="black" stroke-width="0.75" stroke-miterlimit="10" stroke-linecap="round" stroke-linejoin="round"/>
<path d="M15.3999 321.17C15.3999 321.17 14.9999 318.27 11.6999 317.87C8.3999 317.47 7.2999 319.17 4.8999 318.77" stroke="black" stroke-width="0.75" stroke-miterlimit="10" stroke-linecap="round" stroke-linejoin="round"/>
<path d="M14.2999 321.17C14.2999 321.17 13.2999 317.57 9.3999 317.97" stroke="black" stroke-width="0.5" stroke-miterlimit="10" stroke-linecap="round" stroke-linejoin="round"/>
<path d="M12.8999 321.171C12.8999 321.171 11.5999 317.771 8.79993 318.071" stroke="black" stroke-width="0.5" stroke-miterlimit="10" stroke-linecap="round" stroke-linejoin="round"/>
<path d="M11.7 321.171C11.7 321.171 10.7 318.071 8.09998 318.871" stroke="black" stroke-width="0.5" stroke-miterlimit="10" stroke-linecap="round" stroke-linejoin="round"/>
<path d="M10.5999 321.17C10.5999 321.17 9.3999 318.97 7.3999 319.57" stroke="black" stroke-width="0.5" stroke-miterlimit="10" stroke-linecap="round" stroke-linejoin="round"/>
<path d="M9.49993 321.171C9.49993 321.171 7.09993 318.971 3.79993 320.771" stroke="black" stroke-width="0.5" stroke-miterlimit="10" stroke-linecap="round" stroke-linejoin="round"/>
<path d="M7.2999 320.771C7.2999 320.771 3.8999 320.371 2.3999 323.671" stroke="black" stroke-width="0.5" stroke-miterlimit="10" stroke-linecap="round" stroke-linejoin="round"/>
<path d="M5.9999 321.771C5.9999 321.771 3.0999 322.271 1.8999 325.571" stroke="black" stroke-width="0.5" stroke-miterlimit="10" stroke-linecap="round" stroke-linejoin="round"/>
<path d="M5.49993 322.971C5.49993 322.971 2.49993 323.971 1.79993 327.271" stroke="black" stroke-width="0.5" stroke-miterlimit="10" stroke-linecap="round" stroke-linejoin="round"/>
<path d="M4.9 324.371C4.9 324.371 2.4 325.871 2 328.671" stroke="black" stroke-width="0.5" stroke-miterlimit="10" stroke-linecap="round" stroke-linejoin="round"/>
<path d="M4.79998 325.57C4.79998 325.57 2.79998 327.87 2.59998 329.67" stroke="black" stroke-width="0.5" stroke-miterlimit="10" stroke-linecap="round" stroke-linejoin="round"/>
<path d="M16.0999 321.77C16.0999 321.77 16.9999 318.27 12.8999 318.17" stroke="black" stroke-width="0.75" stroke-miterlimit="10" stroke-linecap="round" stroke-linejoin="round"/>
<path d="M16.2 320.771C16.2 320.771 21.7999 318.971 20.2999 329.271" stroke="black" stroke-width="0.75" stroke-miterlimit="10" stroke-linecap="round" stroke-linejoin="round"/>
<path d="M16.6 321.97C16.6 321.97 18.7 319.77 20.6 325.57" stroke="black" stroke-width="0.5" stroke-miterlimit="10" stroke-linecap="round" stroke-linejoin="round"/>
<path d="M17.1 322.67C17.1 322.67 18.9 321.57 20.6 326.87" stroke="black" stroke-width="0.5" stroke-miterlimit="10" stroke-linecap="round" stroke-linejoin="round"/>
<path d="M18 324.47C18 324.47 19.1 323.77 20.4 328.17" stroke="black" stroke-width="0.5" stroke-miterlimit="10" stroke-linecap="round" stroke-linejoin="round"/>
<path d="M20.2999 329.271C20.2999 329.271 19.6999 326.271 18.2999 326.271" stroke="black" stroke-width="0.5" stroke-miterlimit="10" stroke-linecap="round" stroke-linejoin="round"/>
<path d="M19.6999 329.371C19.6999 329.371 19.1999 327.871 18.3999 327.771" stroke="black" stroke-width="0.5" stroke-miterlimit="10" stroke-linecap="round" stroke-linejoin="round"/>
<path d="M18.3999 328.57C18.3999 328.57 18.9999 329.37 19.0999 329.77" stroke="black" stroke-width="0.5" stroke-miterlimit="10" stroke-linecap="round" stroke-linejoin="round"/>
<path d="M3.3999 336.471V335.471" stroke="black" stroke-width="0.75" stroke-miterlimit="10" stroke-linecap="round" stroke-linejoin="round"/>
<path d="M18.2999 336.471V335.471" stroke="black" stroke-width="0.75" stroke-miterlimit="10" stroke-linecap="round" stroke-linejoin="round"/>
<path d="M9.29993 333.57L7.79993 335.47" stroke="black" stroke-width="0.5" stroke-miterlimit="10" stroke-linecap="round" stroke-linejoin="round"/>
<path d="M10.2 334.67C10.2 334.67 10.9 335.07 11.5 334.67" stroke="black" stroke-width="0.75" stroke-miterlimit="10" stroke-linecap="round" stroke-linejoin="round"/>
<path d="M12.3999 334.771C12.3999 334.771 13.1999 334.571 12.3999 333.471" stroke="black" stroke-width="0.5" stroke-miterlimit="10" stroke-linecap="round" stroke-linejoin="round"/>
<path d="M12.5 333.67L14 335.47" stroke="black" stroke-width="0.5" stroke-miterlimit="10" stroke-linecap="round" stroke-linejoin="round"/>
<path d="M1.59998 331.07L1.89998 331.47" stroke="black" stroke-width="0.5" stroke-miterlimit="10" stroke-linecap="round" stroke-linejoin="round"/>
<path d="M20.1999 331.07L19.8999 331.47" stroke="black" stroke-width="0.5" stroke-miterlimit="10" stroke-linecap="round" stroke-linejoin="round"/>
</g>
<g clip-path="url(#clip14)">
<path d="M30 328.771L29.8 332.671" stroke="black" stroke-width="0.75" stroke-miterlimit="10" stroke-linecap="round" stroke-linejoin="round"/>
<path d="M45.0001 328.771L45.4001 332.371" stroke="black" stroke-width="0.75" stroke-miterlimit="10" stroke-linecap="round" stroke-linejoin="round"/>
<path d="M36.8001 333.771C36.8001 333.971 36.6001 334.071 36.4001 334.071C36.2001 334.071 36.0001 333.871 36.0001 333.771C36.0001 333.571 36.2001 333.471 36.4001 333.471C36.6001 333.471 36.8001 333.571 36.8001 333.771Z" fill="black"/>
<path d="M36.0001 328.57C36.0001 328.57 36.6001 329.27 36.5001 329.87" stroke="black" stroke-width="0.5" stroke-miterlimit="10" stroke-linecap="round" stroke-linejoin="round"/>
<path d="M39.0001 328.57C39.0001 328.57 38.4001 329.27 38.5001 329.87" stroke="black" stroke-width="0.5" stroke-miterlimit="10" stroke-linecap="round" stroke-linejoin="round"/>
<path d="M42.6001 329.47C42.6001 329.47 40.9001 328.67 39.6001 329.47" stroke="black" stroke-width="0.75" stroke-miterlimit="10" stroke-linecap="round" stroke-linejoin="round"/>
<path d="M43.0001 328.171C42.7001 328.071 42.0001 327.971 41.0001 327.671C40.6001 327.571 38.8001 327.071 38.6001 327.071L38.8001 326.271C39.3001 326.471 40.8001 326.871 41.1001 326.871C41.7001 326.971 42.0001 327.171 42.6001 327.371L43.0001 328.171Z" fill="black"/>
<path d="M32.4001 329.671C32.4001 329.671 34.0001 328.771 35.4001 329.671" stroke="black" stroke-width="0.75" stroke-miterlimit="10" stroke-linecap="round" stroke-linejoin="round"/>
<path d="M34.4001 329.771C34.4001 329.971 34.2001 330.171 34.0001 330.171C33.8001 330.171 33.6001 329.971 33.6001 329.771C33.6001 329.571 33.8001 329.371 34.0001 329.371C34.2001 329.371 34.4001 329.471 34.4001 329.771Z" fill="black" stroke="black" stroke-width="0.75" stroke-miterlimit="10" stroke-linecap="round" stroke-linejoin="round"/>
<path d="M41.2001 329.771C41.2001 329.971 41.0001 330.171 40.8001 330.171C40.6001 330.171 40.4001 329.971 40.4001 329.771C40.4001 329.571 40.6001 329.371 40.8001 329.371C41.0001 329.371 41.2001 329.471 41.2001 329.771Z" fill="black" stroke="black" stroke-width="0.75" stroke-miterlimit="10" stroke-linecap="round" stroke-linejoin="round"/>
<path d="M31.7001 328.371L32.1001 327.471C32.5001 327.171 33.4001 326.971 33.9001 326.871C34.3001 326.771 36.2001 326.271 36.2001 326.271L36.3001 326.971C35.7001 327.371 34.5001 327.571 34.0001 327.671C33.1001 327.871 31.9001 328.271 31.7001 328.371Z" fill="black"/>
<path d="M34.9001 337.271C37.8001 336.171 40.1001 337.271 40.1001 337.271" stroke="black" stroke-width="0.75" stroke-miterlimit="10" stroke-linecap="round" stroke-linejoin="round"/>
<path d="M46.7001 331.271C45.8001 331.671 45.4001 333.971 45.4001 333.971" stroke="black" stroke-width="0.5" stroke-miterlimit="10" stroke-linecap="round" stroke-linejoin="round"/>
<path d="M35.5001 332.971C35.5001 332.971 34.5001 333.971 35.8001 334.671" stroke="black" stroke-width="0.5" stroke-miterlimit="10" stroke-linecap="round" stroke-linejoin="round"/>
<path d="M38.2001 333.771C38.2001 333.971 38.4001 334.071 38.6001 334.071C38.8001 334.071 39.0001 333.871 39.0001 333.771C39.0001 333.571 38.8001 333.471 38.6001 333.471C38.4001 333.471 38.2001 333.571 38.2001 333.771Z" fill="black"/>
<path d="M39.5001 332.971C39.5001 332.971 40.5001 333.971 39.0001 334.671" stroke="black" stroke-width="0.5" stroke-miterlimit="10" stroke-linecap="round" stroke-linejoin="round"/>
<path d="M37.5001 325.471V326.971" stroke="black" stroke-width="0.5" stroke-miterlimit="10" stroke-linecap="round" stroke-linejoin="round"/>
<path d="M35.2001 333.67L33.9001 337.97" stroke="black" stroke-width="0.5" stroke-miterlimit="10" stroke-linecap="round" stroke-linejoin="round"/>
<path d="M39.8 333.67L41.1 337.97" stroke="black" stroke-width="0.5" stroke-miterlimit="10" stroke-linecap="round" stroke-linejoin="round"/>
<path d="M36.6 330.67V331.47C36.6 331.67 36.5 331.87 36.4 332.07L35.8 332.67" stroke="black" stroke-width="0.5" stroke-miterlimit="10" stroke-linecap="round" stroke-linejoin="round"/>
<path d="M37.0001 337.871H38.2001" stroke="black" stroke-width="0.5" stroke-miterlimit="10" stroke-linecap="round" stroke-linejoin="round"/>
<path d="M45.5001 333.371V334.571" stroke="black" stroke-width="0.5" stroke-miterlimit="10" stroke-linecap="round" stroke-linejoin="round"/>
<path d="M28.3 331.271C29.2 331.671 29.6 333.971 29.6 333.971" stroke="black" stroke-width="0.5" stroke-miterlimit="10" stroke-linecap="round" stroke-linejoin="round"/>
<path d="M29.5001 333.371V334.571" stroke="black" stroke-width="0.5" stroke-miterlimit="10" stroke-linecap="round" stroke-linejoin="round"/>
<path d="M37.5001 342.47C37.5001 342.47 32.6001 342.87 31.0001 339.67C30.5001 338.67 30.1001 336.67 30.1001 336.67C29.4001 336.87 28.9001 336.07 28.9001 335.57C28.8001 335.07 28.1001 334.17 27.6001 333.17C27.1001 332.17 26.8001 330.17 28.1001 330.07C29.2001 330.17 29.8001 331.67 29.8001 331.67" stroke="black" stroke-width="0.75" stroke-miterlimit="10" stroke-linecap="round" stroke-linejoin="round"/>
<path d="M37.5001 342.471C37.5001 342.471 42.4001 342.871 44.0001 339.671C44.5001 338.671 44.9001 336.671 44.9001 336.671C45.6001 336.871 46.1001 336.071 46.1001 335.571C46.2001 335.071 46.9001 334.171 47.4001 333.171C47.9001 332.171 48.2001 330.171 46.9001 330.071C45.7001 329.971 45.3001 331.371 45.3001 331.371" stroke="black" stroke-width="0.75" stroke-miterlimit="10" stroke-linecap="round" stroke-linejoin="round"/>
<path d="M45.8 330.671C45.8 330.671 47.3 326.571 46.9 324.871C46.5 323.171 43.9 321.471 43.9 321.471C43.9 321.471 43.9 319.971 41.8 318.871C39.7 317.871 37.9 317.471 34.9 318.371C31.9 319.271 30.8 320.071 30 320.671C29.2 321.171 27.1 324.271 27.8 327.271C28.5 330.271 28.8 330.471 28.8 330.471C28.8 330.471 29.4 330.971 29.6 331.371L30 328.871L30.3 325.471C30.3 325.471 28.7 322.671 34 321.071C34 321.071 37 319.571 43.3 322.071C43.3 322.071 45.4 323.471 45 329.071L45.3 331.271" fill="black"/>
<path d="M45.8 330.671C45.8 330.671 47.3 326.571 46.9 324.871C46.5 323.171 43.9 321.471 43.9 321.471C43.9 321.471 43.9 319.971 41.8 318.871C39.7 317.871 37.9 317.471 34.9 318.371C31.9 319.271 30.8 320.071 30 320.671C29.2 321.171 27.1 324.271 27.8 327.271C28.5 330.271 28.8 330.471 28.8 330.471C28.8 330.471 29.4 330.971 29.6 331.371L30 328.871L30.3 325.471C30.3 325.471 28.7 322.671 34 321.071C34 321.071 37 319.571 43.3 322.071C43.3 322.071 45.4 323.471 45 329.071L45.3 331.271" stroke="black" stroke-width="0.75" stroke-miterlimit="10" stroke-linecap="round" stroke-linejoin="round"/>
<path d="M30.1001 336.771L29.9001 335.771" stroke="black" stroke-width="0.75" stroke-miterlimit="10" stroke-linecap="round" stroke-linejoin="round"/>
<path d="M44.9001 336.771L45.1001 335.771" stroke="black" stroke-width="0.75" stroke-miterlimit="10" stroke-linecap="round" stroke-linejoin="round"/>
<path d="M28.6001 332.971L28.9001 334.171" stroke="black" stroke-width="0.5" stroke-miterlimit="10" stroke-linecap="round" stroke-linejoin="round"/>
<path d="M46.4001 332.971L46.1001 334.171" stroke="black" stroke-width="0.5" stroke-miterlimit="10" stroke-linecap="round" stroke-linejoin="round"/>
</g>
</g>
</g>
<g clip-path="url(#clip15)">
<g clip-path="url(#clip16)">
<path d="M158.657 82.2782L146.106 60.3936" stroke="black" stroke-miterlimit="10"/>
<path d="M145 58.4707L146.684 65.4707L150 63.4556L145 58.4707Z" fill="black"/>
</g>
<g clip-path="url(#clip17)">
<path d="M232.338 280.394L257.566 280.467" stroke="black" stroke-miterlimit="10"/>
<path d="M259.785 280.471L252.881 278.429L252.968 282.308L259.785 280.471Z" fill="black"/>
</g>
<g clip-path="url(#clip18)">
<path d="M43.4465 280.394L18.2186 280.467" stroke="black" stroke-miterlimit="10"/>
<path d="M16 280.471L22.904 278.429L22.817 282.308L16 280.471Z" fill="black"/>
</g>
<g clip-path="url(#clip19)">
<path d="M115.343 82.2782L127.894 60.3936" stroke="black" stroke-miterlimit="10"/>
<path d="M129 58.4707L127.316 65.4707L124 63.4556L129 58.4707Z" fill="black"/>
</g>
<g clip-path="url(#clip20)">
<path d="M252.995 242.865L265.672 264.676" stroke="black" stroke-miterlimit="10"/>
<path d="M266.785 266.595L261.564 261.637L264.968 259.773L266.785 266.595Z" fill="black"/>
</g>
<g clip-path="url(#clip21)">
<path d="M21.7897 242.865L9.1123 264.676" stroke="black" stroke-miterlimit="10"/>
<path d="M8 266.595L13.2203 261.637L9.81701 259.773L8 266.595Z" fill="black"/>
</g>
</g>
<defs>
<radialGradient id="paint0_radial" cx="0" cy="0" r="1" gradientUnits="userSpaceOnUse" gradientTransform="translate(138.492 59.3385) scale(83.2422)">
<stop stop-color="#36BED9" stop-opacity="0.5"/>
<stop offset="1" stop-color="#36BED9" stop-opacity="0"/>
</radialGradient>
<radialGradient id="paint1_radial" cx="0" cy="0" r="1" gradientUnits="userSpaceOnUse" gradientTransform="translate(11.0431 273.728) scale(83.2422)">
<stop stop-color="#00AB7C" stop-opacity="0.5"/>
<stop offset="1" stop-color="#00AB7C" stop-opacity="0"/>
</radialGradient>
<radialGradient id="paint2_radial" cx="0" cy="0" r="1" gradientUnits="userSpaceOnUse" gradientTransform="translate(262.343 273.81) scale(83.2422)">
<stop stop-color="#FF0017" stop-opacity="0.5"/>
<stop offset="1" stop-color="#FF0017" stop-opacity="0"/>
</radialGradient>
<clipPath id="clip0">
<rect width="251.713" height="215.765" fill="white" transform="translate(11.2666 57.9805)"/>
</clipPath>
<clipPath id="clip1">
<rect width="130" height="52.4" fill="white" transform="translate(72 0.470703)"/>
</clipPath>
<clipPath id="clip2">
<rect width="45.8" height="25.4" fill="white" transform="translate(114.1 27.4707)"/>
</clipPath>
<clipPath id="clip3">
<rect width="20.5" height="25.4" fill="white" transform="translate(114.1 27.4707)"/>
</clipPath>
<clipPath id="clip4">
<rect width="20.3" height="25.3" fill="white" transform="translate(139.6 27.5205)"/>
</clipPath>
<clipPath id="clip5">
<rect width="98" height="52.4" fill="white" transform="translate(189 291.471)"/>
</clipPath>
<clipPath id="clip6">
<rect width="98" height="25.4" fill="white" transform="translate(189 318.471)"/>
</clipPath>
<clipPath id="clip7">
<rect width="22.1" height="24.6" fill="white" transform="translate(189 318.871)"/>
</clipPath>
<clipPath id="clip8">
<rect width="20.2" height="25.4" fill="white" transform="translate(216.1 318.471)"/>
</clipPath>
<clipPath id="clip9">
<rect width="21.7" height="25.4" fill="white" transform="translate(241.3 318.471)"/>
</clipPath>
<clipPath id="clip10">
<rect width="19" height="25.4" fill="white" transform="translate(268 318.471)"/>
</clipPath>
<clipPath id="clip11">
<rect width="48.2" height="52.4" fill="white" transform="translate(0 290.471)"/>
</clipPath>
<clipPath id="clip12">
<rect width="48.2" height="25.4" fill="white" transform="translate(0 317.471)"/>
</clipPath>
<clipPath id="clip13">
<rect width="21.8" height="25.4" fill="white" transform="translate(0 317.471)"/>
</clipPath>
<clipPath id="clip14">
<rect width="21.4" height="25.4" fill="white" transform="translate(26.8 317.471)"/>
</clipPath>
<clipPath id="clip15">
<rect width="262" height="225" fill="white" transform="translate(6 57.4707)"/>
</clipPath>
<clipPath id="clip16">
<rect width="14" height="24" fill="white" transform="translate(145 58.4707)"/>
</clipPath>
<clipPath id="clip17">
<rect width="14" height="24" fill="white" transform="translate(259.785 280.471) rotate(120)"/>
</clipPath>
<clipPath id="clip18">
<rect width="14" height="24" fill="white" transform="matrix(0.5 0.866025 0.866025 -0.5 16 280.471)"/>
</clipPath>
<clipPath id="clip19">
<rect width="14" height="24" fill="white" transform="matrix(-1 0 0 1 129 58.4707)"/>
</clipPath>
<clipPath id="clip20">
<rect width="14" height="24" fill="white" transform="matrix(0.5 -0.866025 -0.866025 -0.5 266.785 266.595)"/>
</clipPath>
<clipPath id="clip21">
<rect width="14" height="24" fill="white" transform="translate(8 266.595) rotate(-120)"/>
</clipPath>
</defs>
</svg>
